<svg width="64" height="64" viewBox="0 0 64 64" fill="none" xmlns="http://www.w3.org/2000/svg">
<circle cx="32" cy="32" r="32" fill="#EAEDF1"/>
<path d="M20.0716 44.6367C20.0716 44.0844 20.5193 43.6367 21.0716 43.6367H44.0887C44.641 43.6367 45.0887 44.0844 45.0887 44.6367V60.278C45.0887 61.0052 44.337 61.4893 43.6749 61.1883L32.994 56.3334C32.731 56.2138 32.4293 56.2138 32.1664 56.3334L21.4854 61.1883C20.8233 61.4893 20.0716 61.0052 20.0716 60.278V44.6367Z" fill="#202D42"/>
<path d="M31.9684 3.47209C32.3284 3.19401 32.8308 3.19401 33.1909 3.47209L36.7889 6.25097C37.0211 6.43034 37.3204 6.49865 37.6075 6.43781L42.0549 5.49525C42.4999 5.40092 42.9526 5.6189 43.1563 6.02567L45.1923 10.0905C45.3237 10.3528 45.5637 10.5442 45.8488 10.614L50.2647 11.6944C50.7066 11.8025 51.0198 12.1953 51.0269 12.6502L51.0976 17.1959C51.1022 17.4893 51.2354 17.7658 51.4619 17.9523L54.9718 20.8418C55.323 21.1309 55.4348 21.6207 55.2438 22.0336L53.3352 26.1598C53.212 26.4261 53.212 26.7331 53.3352 26.9994L55.2438 31.1256C55.4348 31.5385 55.323 32.0283 54.9718 32.3175L51.4619 35.2069C51.2354 35.3934 51.1022 35.67 51.0976 35.9634L51.0269 40.509C51.0198 40.9639 50.7066 41.3567 50.2647 41.4648L45.8488 42.5453C45.5637 42.615 45.3237 42.8064 45.1923 43.0688L43.1563 47.1336C42.9526 47.5403 42.4999 47.7583 42.0549 47.664L37.6075 46.7214C37.3204 46.6606 37.0211 46.7289 36.7889 46.9083L33.1909 49.6871C32.8308 49.9652 32.3284 49.9652 31.9684 49.6871L28.3704 46.9083C28.1381 46.7289 27.8388 46.6606 27.5518 46.7214L23.1044 47.664C22.6593 47.7583 22.2067 47.5403 22.0029 47.1336L19.9669 43.0688C19.8355 42.8064 19.5955 42.615 19.3105 42.5453L14.8945 41.4648C14.4526 41.3567 14.1394 40.9639 14.1323 40.509L14.0616 35.9634C14.057 35.67 13.9238 35.3934 13.6973 35.2069L10.1875 32.3175C9.83623 32.0283 9.72444 31.5385 9.91543 31.1256L11.824 26.9994C11.9472 26.7331 11.9472 26.4261 11.824 26.1598L9.91543 22.0336C9.72444 21.6207 9.83623 21.1309 10.1875 20.8418L13.6973 17.9523C13.9238 17.7658 14.057 17.4893 14.0616 17.1959L14.1323 12.6502C14.1394 12.1953 14.4526 11.8025 14.8945 11.6944L19.3105 10.614C19.5955 10.5442 19.8355 10.3528 19.9669 10.0905L22.0029 6.02567C22.2067 5.6189 22.6593 5.40092 23.1044 5.49525L27.5518 6.43781C27.8388 6.49865 28.1381 6.43034 28.3704 6.25097L31.9684 3.47209Z" fill="#4170B7"/>
<circle cx="32.5798" cy="26.5796" r="16.6548" fill="#34568A"/>
<path d="M34.2808 32.2653H31.5552V23.5885L28.8779 24.3707V22.3063L34.0308 20.5242H34.2808V32.2653Z" fill="white"/>
</svg>
