<svg width="50" height="62" viewBox="0 0 50 62" fill="none" xmlns="http://www.w3.org/2000/svg">
<path d="M41.8065 23.2158C31.2716 11.5804 28.8785 2.53094 28.8785 2.53094C28.8785 2.53094 27.0539 3.34517 25.0001 5.21069L22.4145 34.8511L25.0001 60.182C37.707 60.1819 48.0081 49.8809 48.0081 37.1741C48.008 31.9254 45.0767 26.8277 41.8065 23.2158Z" fill="url(#paint0_linear)"/>
<path d="M21.1217 10.2875C19.8038 12.9233 19.4934 15.8949 19.506 18.1753C19.5182 20.3874 17.9598 22.2966 15.7906 22.7305C14.2751 23.0336 12.7085 22.5592 11.6156 21.4663L9.48638 19.3371C9.48638 19.3371 6.32983 23.6895 5.78891 24.5084C3.3592 28.1863 1.95739 32.6029 1.99278 37.349C2.08708 50.0243 12.3244 60.182 25.0001 60.182V5.21069C23.6566 6.43094 22.2151 8.10056 21.1217 10.2875Z" fill="url(#paint1_linear)"/>
<path d="M43.1542 21.9955C37.8975 16.1896 34.7735 11.0787 33.0783 7.81345C31.2424 4.27669 30.6407 2.08356 30.6361 2.06611L30.0896 0L28.1378 0.870585C28.0267 0.920156 26.6906 1.52919 24.9999 2.83864L23.7071 5.11649L24.9999 7.79709C26.0103 6.66374 27.0523 5.81655 27.8904 5.23005C29.2578 8.70803 32.724 15.8934 40.4588 24.4361C42.1819 26.3392 46.1898 31.3901 46.1898 37.1742C46.1898 48.8583 36.684 58.3641 25 58.3641L23.7071 60.7073L24.9999 62.0001C38.6889 62 49.8258 50.8632 49.8258 37.1742C49.8259 32.2108 47.3942 26.6785 43.1542 21.9955Z" fill="url(#paint2_linear)"/>
<path d="M10.0589 52.2287C6.07167 48.2719 3.85273 42.9829 3.81067 37.336C3.77916 33.1088 4.98777 29.0197 7.30574 25.5111C7.58874 25.0827 8.72403 23.4989 9.70951 22.1321L10.3299 22.7525C11.8561 24.2787 14.0302 24.9372 16.1471 24.5138C19.1635 23.9105 21.3408 21.2409 21.3239 18.1659C21.3134 16.263 21.5519 13.4927 22.7476 11.1011C23.3961 9.80404 24.1878 8.70815 24.9999 7.79709V2.83864C23.2192 4.21803 21.0454 6.37491 19.4954 9.47498C17.9786 12.5088 17.6752 15.8865 17.6879 18.1857C17.6953 19.5237 16.7473 20.6856 15.4338 20.9482C14.5129 21.1322 13.5656 20.8459 12.901 20.1812L9.26531 16.5456L8.01464 18.2702C7.88484 18.4492 4.82839 22.6644 4.27196 23.5066C1.55476 27.6198 0.137923 32.4113 0.174646 37.3629C0.223854 43.9762 2.82458 50.1721 7.49772 54.8095C12.1705 59.4465 18.3862 62.0001 24.9999 62.0001L25 58.3641C19.3523 58.3641 14.0461 56.1853 10.0589 52.2287Z" fill="url(#paint3_linear)"/>
<path d="M32.7153 30.8466H28.6848L24.9595 36.3018L23.7072 41.3158L24.9595 42.2044L32.7153 30.8466Z" fill="#FAFCFD"/>
<path d="M31.1174 38.4786C28.5894 38.4786 26.6813 40.1719 26.6813 43.1293C26.6813 46.1105 28.5893 47.7799 31.1174 47.7799C33.6455 47.7799 35.5535 46.1105 35.5535 43.1293C35.5535 40.1719 33.6454 38.4786 31.1174 38.4786ZM31.1174 45.2042C30.5927 45.2042 30.068 44.7271 30.068 43.1292C30.068 41.5313 30.5927 41.0543 31.1174 41.0543C31.6421 41.0543 32.1668 41.5313 32.1668 43.1292C32.1668 44.7271 31.6421 45.2042 31.1174 45.2042Z" fill="#FAFCFD"/>
<path d="M21.3152 47.5412L24.9595 42.2044V36.3018L17.2846 47.5412H21.3152Z" fill="#FAFCFD"/>
<path d="M23.3186 35.2587C23.3186 32.3014 21.4107 30.608 18.8825 30.608C16.3544 30.608 14.4465 32.3013 14.4465 35.2587C14.4465 38.2399 16.3544 39.9095 18.8825 39.9095C21.4107 39.9095 23.3186 38.2399 23.3186 35.2587ZM17.8332 35.2587C17.8332 33.6608 18.3579 33.1838 18.8825 33.1838C19.4072 33.1838 19.9319 33.6608 19.9319 35.2587C19.9319 36.8567 19.4072 37.3337 18.8825 37.3337C18.3579 37.3337 17.8332 36.8567 17.8332 35.2587Z" fill="#FAFCFD"/>
<defs>
<linearGradient id="paint0_linear" x1="25.0001" y1="2.53094" x2="25.0001" y2="60.182" gradientUnits="userSpaceOnUse">
<stop stop-color="#E99354"/>
<stop offset="1" stop-color="#E91414"/>
</linearGradient>
<linearGradient id="paint1_linear" x1="25.0001" y1="2.53094" x2="25.0001" y2="60.182" gradientUnits="userSpaceOnUse">
<stop stop-color="#E99354"/>
<stop offset="1" stop-color="#E91414"/>
</linearGradient>
<linearGradient id="paint2_linear" x1="24.9999" y1="0" x2="24.9999" y2="62.0001" gradientUnits="userSpaceOnUse">
<stop stop-color="#F7AA73"/>
<stop offset="1" stop-color="#F32E2E"/>
</linearGradient>
<linearGradient id="paint3_linear" x1="24.9999" y1="0" x2="24.9999" y2="62.0001" gradientUnits="userSpaceOnUse">
<stop stop-color="#F7AA73"/>
<stop offset="1" stop-color="#F32E2E"/>
</linearGradient>
</defs>
</svg>
