<svg width="64" height="68" viewBox="0 0 64 68" fill="none" xmlns="http://www.w3.org/2000/svg">
<circle cx="32" cy="36" r="32" fill="#EAEDF1"/>
<g clip-path="url(#clip0)">
<path d="M48.8065 23.2158C38.2716 11.5804 35.8785 2.53094 35.8785 2.53094C35.8785 2.53094 34.0539 3.34517 32.0001 5.21069L29.4145 34.8511L32.0001 60.182C44.707 60.1819 55.0081 49.8809 55.0081 37.1741C55.008 31.9254 52.0767 26.8277 48.8065 23.2158Z" fill="url(#paint0_linear)"/>
<path d="M28.1217 10.2875C26.8038 12.9233 26.4934 15.8949 26.506 18.1753C26.5182 20.3874 24.9598 22.2966 22.7906 22.7305C21.2751 23.0336 19.7085 22.5592 18.6156 21.4663L16.4864 19.3371C16.4864 19.3371 13.3298 23.6895 12.7889 24.5084C10.3592 28.1863 8.95739 32.6029 8.99278 37.349C9.08708 50.0243 19.3244 60.182 32.0001 60.182V5.21069C30.6566 6.43094 29.2151 8.10056 28.1217 10.2875Z" fill="url(#paint1_linear)"/>
<path d="M50.1542 21.9955C44.8975 16.1896 41.7735 11.0787 40.0783 7.81345C38.2424 4.27669 37.6407 2.08356 37.6361 2.06611L37.0896 0L35.1378 0.870585C35.0267 0.920156 33.6906 1.52919 31.9999 2.83864L30.7071 5.11649L31.9999 7.79709C33.0103 6.66374 34.0523 5.81655 34.8904 5.23005C36.2578 8.70803 39.724 15.8934 47.4588 24.4361C49.1819 26.3392 53.1898 31.3901 53.1898 37.1742C53.1898 48.8583 43.684 58.3641 32 58.3641L30.7071 60.7073L31.9999 62.0001C45.6889 62 56.8258 50.8632 56.8258 37.1742C56.8259 32.2108 54.3942 26.6785 50.1542 21.9955Z" fill="url(#paint2_linear)"/>
<path d="M17.0589 52.2287C13.0717 48.2719 10.8527 42.9829 10.8107 37.336C10.7792 33.1088 11.9878 29.0197 14.3057 25.5111C14.5887 25.0827 15.724 23.4989 16.7095 22.1321L17.3299 22.7525C18.8561 24.2787 21.0302 24.9372 23.1471 24.5138C26.1635 23.9105 28.3408 21.2409 28.3239 18.1659C28.3134 16.263 28.5519 13.4927 29.7476 11.1011C30.3961 9.80404 31.1878 8.70815 31.9999 7.79709V2.83864C30.2192 4.21803 28.0454 6.37491 26.4954 9.47498C24.9786 12.5088 24.6752 15.8865 24.6879 18.1857C24.6953 19.5237 23.7473 20.6856 22.4338 20.9482C21.5129 21.1322 20.5656 20.8459 19.901 20.1812L16.2653 16.5456L15.0146 18.2702C14.8848 18.4492 11.8284 22.6644 11.272 23.5066C8.55476 27.6198 7.13792 32.4113 7.17465 37.3629C7.22385 43.9762 9.82458 50.1721 14.4977 54.8095C19.1705 59.4465 25.3862 62.0001 31.9999 62.0001L32 58.3641C26.3523 58.3641 21.0461 56.1853 17.0589 52.2287Z" fill="url(#paint3_linear)"/>
<path d="M39.7153 30.8466H35.6848L31.9595 36.3018L30.7072 41.3158L31.9595 42.2044L39.7153 30.8466Z" fill="#FAFCFD"/>
<path d="M38.1174 38.4786C35.5894 38.4786 33.6813 40.1719 33.6813 43.1293C33.6813 46.1105 35.5893 47.7799 38.1174 47.7799C40.6455 47.7799 42.5535 46.1105 42.5535 43.1293C42.5535 40.1719 40.6454 38.4786 38.1174 38.4786ZM38.1174 45.2042C37.5927 45.2042 37.068 44.7271 37.068 43.1292C37.068 41.5313 37.5927 41.0543 38.1174 41.0543C38.6421 41.0543 39.1668 41.5313 39.1668 43.1292C39.1668 44.7271 38.6421 45.2042 38.1174 45.2042Z" fill="#FAFCFD"/>
<path d="M28.3152 47.5412L31.9595 42.2044V36.3018L24.2846 47.5412H28.3152Z" fill="#FAFCFD"/>
<path d="M30.3186 35.2587C30.3186 32.3014 28.4107 30.608 25.8825 30.608C23.3544 30.608 21.4465 32.3013 21.4465 35.2587C21.4465 38.2399 23.3544 39.9095 25.8825 39.9095C28.4107 39.9095 30.3186 38.2399 30.3186 35.2587ZM24.8332 35.2587C24.8332 33.6608 25.3579 33.1838 25.8825 33.1838C26.4072 33.1838 26.9319 33.6608 26.9319 35.2587C26.9319 36.8567 26.4072 37.3337 25.8825 37.3337C25.3579 37.3337 24.8332 36.8567 24.8332 35.2587Z" fill="#FAFCFD"/>
</g>
<defs>
<linearGradient id="paint0_linear" x1="32.0001" y1="2.53094" x2="32.0001" y2="60.182" gradientUnits="userSpaceOnUse">
<stop stop-color="#E99354"/>
<stop offset="1" stop-color="#E91414"/>
</linearGradient>
<linearGradient id="paint1_linear" x1="32.0001" y1="2.53094" x2="32.0001" y2="60.182" gradientUnits="userSpaceOnUse">
<stop stop-color="#E99354"/>
<stop offset="1" stop-color="#E91414"/>
</linearGradient>
<linearGradient id="paint2_linear" x1="31.9999" y1="0" x2="31.9999" y2="62.0001" gradientUnits="userSpaceOnUse">
<stop stop-color="#F7AA73"/>
<stop offset="1" stop-color="#F32E2E"/>
</linearGradient>
<linearGradient id="paint3_linear" x1="31.9999" y1="0" x2="31.9999" y2="62.0001" gradientUnits="userSpaceOnUse">
<stop stop-color="#F7AA73"/>
<stop offset="1" stop-color="#F32E2E"/>
</linearGradient>
<clipPath id="clip0">
<rect width="62" height="62" fill="white" transform="translate(1)"/>
</clipPath>
</defs>
</svg>
