<svg width="64" height="64" viewBox="0 0 64 64" fill="none" xmlns="http://www.w3.org/2000/svg">
<path d="M38.6666 48.8003H3.33337C1.46662 48.8003 0 47.2003 0 45.3336V11.8669C0 10.0003 1.46662 8.53363 3.33337 8.53363H35.3334C37.2 8.53363 38.6668 10.0003 38.6668 11.867V48.8003H38.6666Z" fill="#2E4363"/>
<path d="M63.0666 27.1999L54.5332 18.6665C53.9999 18.1332 53.1999 17.7332 52.3999 17.7332H38.6666V48.7999H60.5332C62.4 48.7999 64 47.1999 64 45.3333V29.3333C64 28.3999 63.7334 27.7333 63.0666 27.1999Z" fill="#4170B7"/>
<path d="M0 42.9331V45.3331C0 47.1997 1.46662 48.6664 3.33337 48.6664H60.5334C62.4 48.6664 64 47.0664 64 45.1998V42.7998H0V42.9331Z" fill="#202D42"/>
<path d="M59.4667 33.9997V29.8663L51.8667 22.1331H43.2001V33.9997H59.4667Z" fill="#34568A"/>
<path d="M16.2666 55.4661C20.8322 55.4661 24.5333 51.765 24.5333 47.1995C24.5333 42.634 20.8322 38.9329 16.2666 38.9329C11.7011 38.9329 8 42.634 8 47.1995C8 51.765 11.7011 55.4661 16.2666 55.4661Z" fill="#273A57"/>
<path d="M16.2666 51.2002C18.4757 51.2002 20.2666 49.4093 20.2666 47.2002C20.2666 44.9911 18.4757 43.2002 16.2666 43.2002C14.0575 43.2002 12.2666 44.9911 12.2666 47.2002C12.2666 49.4093 14.0575 51.2002 16.2666 51.2002Z" fill="white"/>
<path d="M49.8666 55.4668C54.4321 55.4668 58.1332 51.7657 58.1332 47.2002C58.1332 42.6346 54.4321 38.9335 49.8666 38.9335C45.3011 38.9335 41.6 42.6346 41.6 47.2002C41.6 51.7657 45.3011 55.4668 49.8666 55.4668Z" fill="#273A57"/>
<path d="M49.8667 51.2002C52.0758 51.2002 53.8667 49.4093 53.8667 47.2002C53.8667 44.9911 52.0758 43.2002 49.8667 43.2002C47.6576 43.2002 45.8667 44.9911 45.8667 47.2002C45.8667 49.4093 47.6576 51.2002 49.8667 51.2002Z" fill="white"/>
<path d="M8.39993 14.1331C6.79993 14.1331 5.46655 15.4664 5.46655 17.0664V34.2664C5.46655 35.8664 6.79993 37.1998 8.39993 37.1998C9.99993 37.1998 11.3333 35.8664 11.3333 34.2664V17.0664C11.1999 15.4663 9.99993 14.1331 8.39993 14.1331Z" fill="#202D42"/>
<path d="M19.1999 14.1331C17.5999 14.1331 16.2665 15.4664 16.2665 17.0664V34.2664C16.2665 35.8664 17.5999 37.1998 19.1999 37.1998C20.7999 37.1998 22.1332 35.8664 22.1332 34.2664V17.0664C21.9999 15.4663 20.7999 14.1331 19.1999 14.1331Z" fill="#202D42"/>
<path d="M29.9999 14.1331C28.3999 14.1331 27.0665 15.4664 27.0665 17.0664V34.2664C27.0665 35.8664 28.3999 37.1998 29.9999 37.1998C31.5999 37.1998 32.9333 35.8664 32.9333 34.2664V17.0664C32.7999 15.4663 31.5999 14.1331 29.9999 14.1331Z" fill="#202D42"/>
</svg>
