<svg width="66" height="66" viewBox="0 0 66 66" fill="none" xmlns="http://www.w3.org/2000/svg">
<circle cx="32" cy="32" r="32" fill="#EAEDF1"/>
<path d="M40.6666 50.8003H5.33337C3.46662 50.8003 2 49.2003 2 47.3336V13.8669C2 12.0003 3.46662 10.5336 5.33337 10.5336H37.3334C39.2 10.5336 40.6668 12.0003 40.6668 13.867V50.8003H40.6666Z" fill="#2E4363"/>
<path d="M65.0666 29.1999L56.5332 20.6665C55.9999 20.1332 55.1999 19.7332 54.3999 19.7332H40.6666V50.7999H62.5332C64.4 50.7999 66 49.1999 66 47.3333V31.3333C66 30.3999 65.7334 29.7333 65.0666 29.1999Z" fill="#4170B7"/>
<path d="M2 44.9331V47.3331C2 49.1997 3.46662 50.6664 5.33337 50.6664H62.5334C64.4 50.6664 66 49.0664 66 47.1998V44.7998H2V44.9331Z" fill="#202D42"/>
<path d="M61.4667 35.9997V31.8663L53.8667 24.1331H45.2001V35.9997H61.4667Z" fill="#34568A"/>
<path d="M18.2666 57.4661C22.8322 57.4661 26.5333 53.765 26.5333 49.1995C26.5333 44.634 22.8322 40.9329 18.2666 40.9329C13.7011 40.9329 10 44.634 10 49.1995C10 53.765 13.7011 57.4661 18.2666 57.4661Z" fill="#273A57"/>
<path d="M18.2666 53.2002C20.4757 53.2002 22.2666 51.4093 22.2666 49.2002C22.2666 46.9911 20.4757 45.2002 18.2666 45.2002C16.0575 45.2002 14.2666 46.9911 14.2666 49.2002C14.2666 51.4093 16.0575 53.2002 18.2666 53.2002Z" fill="white"/>
<path d="M51.8666 57.4668C56.4321 57.4668 60.1332 53.7657 60.1332 49.2002C60.1332 44.6346 56.4321 40.9335 51.8666 40.9335C47.3011 40.9335 43.6 44.6346 43.6 49.2002C43.6 53.7657 47.3011 57.4668 51.8666 57.4668Z" fill="#273A57"/>
<path d="M51.8667 53.2002C54.0758 53.2002 55.8667 51.4093 55.8667 49.2002C55.8667 46.9911 54.0758 45.2002 51.8667 45.2002C49.6576 45.2002 47.8667 46.9911 47.8667 49.2002C47.8667 51.4093 49.6576 53.2002 51.8667 53.2002Z" fill="white"/>
<path d="M10.3999 16.1331C8.79993 16.1331 7.46655 17.4664 7.46655 19.0664V36.2664C7.46655 37.8664 8.79993 39.1998 10.3999 39.1998C11.9999 39.1998 13.3333 37.8664 13.3333 36.2664V19.0664C13.1999 17.4663 11.9999 16.1331 10.3999 16.1331Z" fill="#202D42"/>
<path d="M21.1999 16.1331C19.5999 16.1331 18.2665 17.4664 18.2665 19.0664V36.2664C18.2665 37.8664 19.5999 39.1998 21.1999 39.1998C22.7999 39.1998 24.1332 37.8664 24.1332 36.2664V19.0664C23.9999 17.4663 22.7999 16.1331 21.1999 16.1331Z" fill="#202D42"/>
<path d="M31.9999 16.1331C30.3999 16.1331 29.0665 17.4664 29.0665 19.0664V36.2664C29.0665 37.8664 30.3999 39.1998 31.9999 39.1998C33.5999 39.1998 34.9333 37.8664 34.9333 36.2664V19.0664C34.7999 17.4663 33.5999 16.1331 31.9999 16.1331Z" fill="#202D42"/>
</svg>
