<svg width="77" height="77" viewBox="0 0 77 77" fill="none" xmlns="http://www.w3.org/2000/svg">
<circle cx="37" cy="37" r="32" fill="#EAEDF1"/>
<g clip-path="url(#clip0)">
<path d="M-4.95911e-05 19.2547V51.33C-0.00170135 51.868 0.262466 52.3721 0.705559 52.6772L10.3282 59.0923C10.6 59.2547 10.9096 59.3431 11.2262 59.3489C11.4701 59.3453 11.7103 59.2906 11.9318 59.1885L40.2543 45.0433L0.256302 18.3567C0.0900116 18.6267 0.00130463 18.9375 -4.95911e-05 19.2547Z" fill="#34568A"/>
<path d="M0.256615 18.3569L40.2544 45.0435L76.0827 27.1135C76.8831 26.7341 77.2244 25.7779 76.8451 24.9774C76.7188 24.711 76.5215 24.4845 76.2751 24.3229L66.6525 17.9078C66.3825 17.7414 66.0717 17.6525 65.7545 17.6511H1.60378C1.06536 17.6484 0.560783 17.9128 0.256615 18.3569Z" fill="#5282CB"/>
<path d="M75.3769 24.0662H11.2262C10.3405 24.0662 9.6224 24.7843 9.6224 25.67V57.7453C9.6224 58.631 10.3405 59.3491 11.2262 59.3491H75.3769C76.2626 59.3491 76.9807 58.631 76.9807 57.7453V25.67C76.9807 24.7843 76.2626 24.0662 75.3769 24.0662Z" fill="#4170B7"/>
<path d="M20.849 52.9341H30.4716C31.3574 52.9341 32.0754 52.216 32.0754 51.3303C32.0754 50.4446 31.3574 49.7265 30.4716 49.7265H22.1769C21.6913 48.3568 20.6145 47.2787 19.2452 46.7916V36.6237C20.6143 36.1365 21.6913 35.0585 22.1769 33.6888H30.4716C31.3574 33.6888 32.0754 32.9707 32.0754 32.085C32.0754 31.1992 31.3574 30.4811 30.4716 30.4811H20.849C19.9633 30.4811 19.2452 31.1992 19.2452 32.085C19.2452 32.9707 18.5271 33.6888 17.6414 33.6888C16.7557 33.6888 16.0376 34.4069 16.0376 35.2926V48.1227C16.0376 49.0084 16.7557 49.7265 17.6414 49.7265C18.5271 49.7265 19.2452 50.4446 19.2452 51.3303C19.2452 52.2162 19.9633 52.9341 20.849 52.9341Z" fill="#34568A"/>
<path d="M56.1318 52.9341H65.7543C66.6401 52.9341 67.3582 52.216 67.3582 51.3303C67.3582 50.4446 68.0763 49.7265 68.962 49.7265C69.8477 49.7265 70.5658 49.0084 70.5658 48.1227V35.2926C70.5658 34.4069 69.8477 33.6888 68.962 33.6888C68.0763 33.6888 67.3582 32.9707 67.3582 32.085C67.3582 31.1992 66.6401 30.4811 65.7543 30.4811H56.1318C55.246 30.4811 54.5279 31.1992 54.5279 32.085C54.5279 32.9707 55.246 33.6888 56.1318 33.6888H64.4264C64.9121 35.0585 65.9889 36.1365 67.3582 36.6237V46.7947C65.989 47.2819 64.9121 48.3599 64.4264 49.7296H56.1318C55.246 49.7308 54.529 50.4498 54.5302 51.3356C54.5314 52.2196 55.2477 52.9359 56.1318 52.9371V52.9341Z" fill="#34568A"/>
<path d="M40.5785 17.651L51.3204 24.8102V59.349H35.2829V26.5295L21.9684 17.651H40.5785Z" fill="#2E4363"/>
</g>
<defs>
<clipPath id="clip0">
<rect width="77" height="77" fill="white" transform="matrix(-1 0 0 1 77 0)"/>
</clipPath>
</defs>
</svg>
