<svg width="64" height="64" fill="none" xmlns="http://www.w3.org/2000/svg"><circle cx="32" cy="32" r="32" fill="#EAEDF1"/><path d="M20.072 44.637a1 1 0 011-1h23.017a1 1 0 011 1v15.641a1 1 0 01-1.414.91l-10.681-4.855a1 1 0 00-.828 0l-10.68 4.855a1 1 0 01-1.414-.91V44.637z" fill="#202D42"/><path d="M31.968 3.472a1 1 0 011.223 0l3.598 2.779a1 1 0 00.819.187l4.447-.943a1 1 0 011.101.53l2.036 4.066a1 1 0 00.657.523l4.416 1.08a1 1 0 01.762.956l.07 4.546a1 1 0 00.365.756l3.51 2.89a1 1 0 01.272 1.192l-1.909 4.126a1 1 0 000 .84l1.909 4.126a1 1 0 01-.272 1.192l-3.51 2.889a1 1 0 00-.364.756l-.071 4.546a1 1 0 01-.762.956l-4.416 1.08a1 1 0 00-.657.524l-2.036 4.065a1 1 0 01-1.101.53l-4.447-.943a1 1 0 00-.82.187l-3.597 2.78a1 1 0 01-1.223 0l-3.598-2.78a1 1 0 00-.818-.187l-4.448.943a1 1 0 01-1.101-.53l-2.036-4.065a1 1 0 00-.656-.524l-4.416-1.08a1 1 0 01-.763-.956l-.07-4.546a1 1 0 00-.365-.756l-3.51-2.89a1 1 0 01-.272-1.191l1.909-4.127a1 1 0 000-.84l-1.909-4.125a1 1 0 01.273-1.192l3.51-2.89a1 1 0 00.364-.756l.07-4.546a1 1 0 01.763-.956l4.416-1.08a1 1 0 00.656-.524l2.036-4.064a1 1 0 011.101-.53l4.448.942a1 1 0 00.818-.187l3.598-2.779z" fill="#4170B7"/><circle cx="32.58" cy="26.58" r="16.655" fill="#34568A"/><path d="M34.28 32.265h-2.725v-8.677l-2.677.783v-2.065l5.153-1.782h.25v11.741z" fill="#fff"/></svg>