<svg width="50" height="62" fill="none" xmlns="http://www.w3.org/2000/svg"><path d="M41.806 23.216C31.273 11.58 28.88 2.53 28.88 2.53s-1.827.815-3.88 2.68l-2.585 29.64L25 60.182c12.707 0 23.008-10.301 23.008-23.008 0-5.249-2.931-10.346-6.202-13.958z" fill="url(#paint0_linear)"/><path d="M21.122 10.287c-1.318 2.636-1.629 5.608-1.616 7.888a4.62 4.62 0 01-7.89 3.291l-2.13-2.129S6.33 23.69 5.79 24.508A22.903 22.903 0 001.993 37.35 22.959 22.959 0 0025 60.182V5.211c-1.343 1.22-2.785 2.89-3.878 5.076z" fill="url(#paint1_linear)"/><path d="M43.154 21.995c-5.257-5.805-8.38-10.916-10.076-14.182-1.836-3.536-2.437-5.73-2.442-5.747L30.09 0l-1.952.87c-.111.05-1.448.66-3.138 1.97l-1.293 2.277L25 7.797a16.82 16.82 0 012.89-2.567c1.368 3.478 4.834 10.663 12.569 19.206 1.723 1.903 5.73 6.954 5.73 12.738 0 11.684-9.505 21.19-21.189 21.19l-1.293 2.343L25 62c13.689 0 24.826-11.137 24.826-24.826 0-4.963-2.432-10.495-6.672-15.178z" fill="url(#paint2_linear)"/><path d="M10.059 52.229c-3.987-3.957-6.206-9.246-6.248-14.893a21.09 21.09 0 013.495-11.825c.283-.428 1.418-2.012 2.404-3.379l.62.62a6.427 6.427 0 005.817 1.762 6.45 6.45 0 005.177-6.348c-.01-1.903.228-4.673 1.424-7.065A15.155 15.155 0 0125 7.797V2.84c-1.78 1.379-3.955 3.536-5.505 6.636-1.516 3.034-1.82 6.412-1.807 8.71a2.807 2.807 0 01-2.254 2.763 2.8 2.8 0 01-2.533-.767l-3.636-3.635-1.25 1.724c-.13.18-3.187 4.394-3.743 5.237A24.716 24.716 0 00.175 37.363c.049 6.613 2.65 12.81 7.323 17.447C12.17 59.446 18.386 62 25 62v-3.636c-5.648 0-10.954-2.179-14.941-6.135z" fill="url(#paint3_linear)"/><path d="M32.715 30.847h-4.03l-3.726 5.455-1.252 5.014 1.252.888 7.756-11.357zm-1.598 7.632c-2.528 0-4.436 1.693-4.436 4.65 0 2.982 1.908 4.65 4.436 4.65s4.436-1.669 4.436-4.65c0-2.957-1.908-4.65-4.436-4.65zm0 6.725c-.524 0-1.049-.477-1.049-2.075 0-1.598.525-2.075 1.05-2.075.524 0 1.049.477 1.049 2.075 0 1.598-.525 2.075-1.05 2.075z" fill="#FAFCFD"/><path d="M21.315 47.541l3.644-5.337v-5.902l-7.674 11.24h4.03zm2.004-12.282c0-2.958-1.908-4.651-4.436-4.651-2.529 0-4.436 1.693-4.436 4.65 0 2.982 1.907 4.651 4.436 4.651 2.528 0 4.436-1.67 4.436-4.65zm-5.486 0c0-1.598.525-2.075 1.05-2.075.524 0 1.049.477 1.049 2.075 0 1.598-.525 2.075-1.05 2.075-.524 0-1.049-.477-1.049-2.075z" fill="#FAFCFD"/><defs><linearGradient id="paint0_linear" x1="25" y1="2.531" x2="25" y2="60.182" gradientUnits="userSpaceOnUse"><stop stop-color="#E99354"/><stop offset="1" stop-color="#E91414"/></linearGradient><linearGradient id="paint1_linear" x1="25" y1="2.531" x2="25" y2="60.182" gradientUnits="userSpaceOnUse"><stop stop-color="#E99354"/><stop offset="1" stop-color="#E91414"/></linearGradient><linearGradient id="paint2_linear" x1="25" y1="0" x2="25" y2="62" gradientUnits="userSpaceOnUse"><stop stop-color="#F7AA73"/><stop offset="1" stop-color="#F32E2E"/></linearGradient><linearGradient id="paint3_linear" x1="25" y1="0" x2="25" y2="62" gradientUnits="userSpaceOnUse"><stop stop-color="#F7AA73"/><stop offset="1" stop-color="#F32E2E"/></linearGradient></defs></svg>