<svg width="64" height="64" fill="none" xmlns="http://www.w3.org/2000/svg"><path d="M38.667 48.8H3.333C1.467 48.8 0 47.2 0 45.334V11.867a3.3 3.3 0 013.333-3.333h32a3.301 3.301 0 013.334 3.333V48.8z" fill="#2E4363"/><path d="M63.067 27.2l-8.534-8.534c-.533-.533-1.333-.933-2.133-.933H38.667V48.8h21.866C62.4 48.8 64 47.2 64 45.333v-16c0-.933-.267-1.6-.933-2.133z" fill="#4170B7"/><path d="M0 42.933v2.4a3.3 3.3 0 003.333 3.333h57.2c1.867 0 3.467-1.6 3.467-3.466v-2.4H0v.133z" fill="#202D42"/><path d="M59.467 34v-4.134l-7.6-7.733H43.2V34h16.267z" fill="#34568A"/><path d="M16.267 55.466a8.267 8.267 0 100-16.533 8.267 8.267 0 000 16.533z" fill="#273A57"/><path d="M16.267 51.2a4 4 0 100-8 4 4 0 000 8z" fill="#fff"/><path d="M49.867 55.467a8.267 8.267 0 100-16.533 8.267 8.267 0 000 16.533z" fill="#273A57"/><path d="M49.867 51.2a4 4 0 100-8 4 4 0 000 8z" fill="#fff"/><path d="M8.4 14.133c-1.6 0-2.933 1.333-2.933 2.933v17.2c0 1.6 1.333 2.934 2.933 2.934 1.6 0 2.933-1.334 2.933-2.934v-17.2C11.2 15.466 10 14.133 8.4 14.133zm10.8 0c-1.6 0-2.933 1.333-2.933 2.933v17.2c0 1.6 1.333 2.934 2.933 2.934 1.6 0 2.933-1.334 2.933-2.934v-17.2c-.133-1.6-1.333-2.933-2.933-2.933zm10.8 0c-1.6 0-2.933 1.333-2.933 2.933v17.2c0 1.6 1.333 2.934 2.933 2.934 1.6 0 2.933-1.334 2.933-2.934v-17.2c-.133-1.6-1.333-2.933-2.933-2.933z" fill="#202D42"/></svg>