<svg width="66" height="66" fill="none" xmlns="http://www.w3.org/2000/svg"><circle cx="32" cy="32" r="32" fill="#EAEDF1"/><path d="M40.667 50.8H5.333C3.467 50.8 2 49.2 2 47.334V13.867a3.3 3.3 0 013.333-3.333h32a3.301 3.301 0 013.334 3.333V50.8z" fill="#2E4363"/><path d="M65.067 29.2l-8.534-8.534c-.533-.533-1.333-.933-2.133-.933H40.667V50.8h21.866C64.4 50.8 66 49.2 66 47.333v-16c0-.933-.267-1.6-.933-2.133z" fill="#4170B7"/><path d="M2 44.933v2.4a3.3 3.3 0 003.333 3.333h57.2c1.867 0 3.467-1.6 3.467-3.466v-2.4H2v.133z" fill="#202D42"/><path d="M61.467 36v-4.134l-7.6-7.733H45.2V36h16.267z" fill="#34568A"/><path d="M18.267 57.466a8.267 8.267 0 100-16.533 8.267 8.267 0 000 16.533z" fill="#273A57"/><path d="M18.267 53.2a4 4 0 100-8 4 4 0 000 8z" fill="#fff"/><path d="M51.867 57.467a8.267 8.267 0 100-16.533 8.267 8.267 0 000 16.533z" fill="#273A57"/><path d="M51.867 53.2a4 4 0 100-8 4 4 0 000 8z" fill="#fff"/><path d="M10.4 16.133c-1.6 0-2.933 1.333-2.933 2.933v17.2c0 1.6 1.333 2.934 2.933 2.934 1.6 0 2.933-1.334 2.933-2.934v-17.2c-.133-1.6-1.333-2.933-2.933-2.933zm10.8 0c-1.6 0-2.933 1.333-2.933 2.933v17.2c0 1.6 1.333 2.934 2.933 2.934 1.6 0 2.933-1.334 2.933-2.934v-17.2c-.133-1.6-1.333-2.933-2.933-2.933zm10.8 0c-1.6 0-2.933 1.333-2.933 2.933v17.2c0 1.6 1.333 2.934 2.933 2.934 1.6 0 2.933-1.334 2.933-2.934v-17.2c-.133-1.6-1.333-2.933-2.933-2.933z" fill="#202D42"/></svg>