<svg width="64" height="64" fill="none" xmlns="http://www.w3.org/2000/svg"><circle cx="32" cy="32" r="32" fill="#EAEDF1"/><path d="M49.577 7.613A1.148 1.148 0 0048.569 7H14.832c-.42 0-.808.236-1.014.617L8.45 17.57a2.292 2.292 0 011.726-.793h43.046a2.29 2.29 0 011.725.793l-5.37-9.958z" fill="#202D42"/><path d="M26.299 7v9.777h10.66V7h-10.66z" fill="#34568A"/><path d="M55.435 18.74a2.325 2.325 0 00-2.325-2.324H10.325A2.325 2.325 0 008 18.74v36.033a2.325 2.325 0 002.325 2.325h42.784a2.325 2.325 0 002.325-2.325V18.741z" fill="#2E4363"/><path d="M28.143 27.907c1.72 0 1.72 1.258 3.438 1.258 1.72 0 1.72-1.258 3.439-1.258.75 0 1.174.24 1.555.51a.244.244 0 00.383-.201v-11.8h-10.66v11.74c0 .193.216.31.375.202.36-.245.775-.451 1.47-.451z" fill="#4170B7"/><path d="M47.973 51.68h-5.685a1.332 1.332 0 010-2.664h5.685a1.332 1.332 0 010 2.665z" fill="#fff"/></svg>