<svg width="64" height="64" fill="none" xmlns="http://www.w3.org/2000/svg"><circle cx="32" cy="32" r="32" fill="#EAEDF1"/><path d="M48.868 2H13.937c-1.664 0-3.013.84-3.013 1.878v8.18c0 1.036 1.349 1.877 3.013 1.877h34.931c1.664 0 3.012-.84 3.012-1.878v-8.18C51.88 2.842 50.532 2 48.868 2z" fill="#202D42"/><path d="M51.012 6.313H10.884C9.844 6.313 9 7.157 9 8.198v52.346c0 1.041.844 1.885 1.884 1.885h40.128c1.04 0 1.885-.844 1.885-1.885V8.199a1.885 1.885 0 00-1.885-1.885z" fill="#2E4363"/><path d="M37.658 53.484H24.884a1.884 1.884 0 110-3.769h12.774a1.884 1.884 0 010 3.77z" fill="#fff"/><path d="M31.402 15.258c-8.153 0-14.786 6.633-14.786 14.786 0 8.153 6.633 14.786 14.786 14.786 8.153 0 14.786-6.633 14.786-14.786 0-8.153-6.633-14.786-14.786-14.786zM42.257 28.16h-4.356c-.227-3.089-1.008-5.922-2.266-8.287a11.055 11.055 0 016.623 8.287zm-13.57 3.768h5.429c-.276 3.122-1.232 5.923-2.714 7.96-1.482-2.037-2.438-4.838-2.714-7.96zm0-3.768c.277-3.122 1.233-5.923 2.715-7.961 1.482 2.038 2.438 4.839 2.714 7.96h-5.428zm-1.518-8.288c-1.258 2.366-2.04 5.2-2.266 8.287h-4.356c.649-3.75 3.2-6.857 6.622-8.287zm-6.622 12.056h4.356c.226 3.089 1.008 5.922 2.266 8.287-3.421-1.429-5.973-4.536-6.622-8.287zm15.088 8.287c1.258-2.365 2.04-5.199 2.266-8.287h4.356a11.051 11.051 0 01-6.622 8.287z" fill="#4170B7"/></svg>