<svg width="25" height="25" fill="none" xmlns="http://www.w3.org/2000/svg"><path fill-rule="evenodd" clip-rule="evenodd" d="M23.835 6.827l-11.02-5.75a.68.68 0 00-.63 0l-11.02 5.75a.678.678 0 000 1.204l11.02 5.75a.676.676 0 00.63 0l11.02-5.75a.678.678 0 000-1.204zM2.947 7.43L12.5 2.444l9.552 4.985-9.552 4.985-9.553-4.985z" fill="#4170B7"/><path d="M22.232 10.823a.68.68 0 00-.628 1.205l.448.234-9.552 4.985-9.552-4.984.448-.234a.68.68 0 00-.627-1.205l-1.604.836a.678.678 0 000 1.204l11.02 5.75a.675.675 0 00.63 0l11.02-5.75a.678.678 0 00.002-1.204l-1.604-.836h-.001z" fill="#4170B7"/><path d="M22.232 15.656a.68.68 0 00-.628 1.205l.448.235L12.5 22.08l-9.552-4.985.448-.233a.68.68 0 10-.629-1.205l-1.602.836a.678.678 0 000 1.204l11.02 5.75a.675.675 0 00.63-.001l11.02-5.75a.678.678 0 00.002-1.203l-1.604-.837h-.001z" fill="#4170B7"/></svg>