<svg width="25" height="26" fill="none" xmlns="http://www.w3.org/2000/svg"><path d="M18.651 9.954l-4.797 1.049L16.2 2.789c.204-.714-.75-1.17-1.179-.563L5.665 15.52c-.352.5.106 1.171.7 1.025l4.274-1.052-2.338 8.221c-.201.708.736 1.16 1.17.576l9.854-13.294c.364-.49-.077-1.172-.674-1.041zM10.57 20.582l1.656-5.825a.663.663 0 00-.795-.825l-3.663.902 6.084-8.643-1.575 5.514a.663.663 0 00.779.829l4.154-.909-6.64 8.957zm7.653 0l-1.59-.026.845-1.661a.662.662 0 10-1.181-.6L14.972 20.9c-.27.529.083.875.591.963l1.586.026-.854 1.709a.662.662 0 101.185.593l1.325-2.65a.664.664 0 00-.582-.959zM7.908 2.015a.663.663 0 00-.888.296l-1.325 2.65a.664.664 0 00.596.959h1.574L7.02 7.61a.663.663 0 001.185.593l1.325-2.65a.664.664 0 00-.593-.958H7.36l.846-1.691a.662.662 0 00-.297-.89z" fill="#4170B7"/></svg>