<svg width="25" height="26" fill="none" xmlns="http://www.w3.org/2000/svg"><g clip-path="url(#clip0)" fill="#4170B7" stroke="#4170B7" stroke-width=".2"><path d="M24.338 6.3a.515.515 0 00-.516.515v4.118h-1.028v-1.03a2.062 2.062 0 00-2.06-2.058c-.614 0-1.166.27-1.544.699a2.056 2.056 0 00-3.088 0 2.05 2.05 0 00-3.088 0 2.052 2.052 0 00-3.088 0 2.052 2.052 0 00-3.088 0c-.377-.429-.93-.7-1.544-.7-.957 0-1.765.658-1.994 1.545H1.691a.514.514 0 00-.514.514v1.03H.662a.514.514 0 100 1.029h.515v1.03c0 .284.23.514.514.514h1.545v9.78a2.06 2.06 0 002.058 2.057c.615 0 1.167-.27 1.544-.7a2.055 2.055 0 003.088 0 2.055 2.055 0 003.088 0 2.056 2.056 0 003.088 0 2.057 2.057 0 003.088 0 2.057 2.057 0 003.604-1.358V11.962h1.544c.283 0 .514-.23.514-.515V6.815a.515.515 0 00-.514-.514zM3.236 12.478h-1.03v-2.06h1.03v2.06zm3.088 10.808a1.03 1.03 0 01-2.059 0V9.903a1.03 1.03 0 012.059 0v13.382zm3.088 0a1.03 1.03 0 01-2.059 0V9.903a1.03 1.03 0 012.059 0v13.382zm3.088 0a1.03 1.03 0 01-2.059 0V9.903a1.03 1.03 0 012.059 0v13.382zm3.088 0a1.03 1.03 0 01-2.058 0V9.903a1.03 1.03 0 012.058 0v13.382zm3.088 0a1.03 1.03 0 01-2.058 0V9.903a1.03 1.03 0 012.058 0v13.382zm3.088 0a1.03 1.03 0 01-2.058 0V9.903a1.03 1.03 0 012.058 0v13.382z"/><path d="M17.367 5.641c-.064-.219-.025-.378.13-.533.417-.42.556-.964.388-1.535a2.044 2.044 0 00-.356-.687h-.001v-.002a.515.515 0 10-.793.657c.001.001.11.142.163.321.06.211.022.366-.131.52-.417.418-.556.967-.39 1.544.112.39.33.667.353.698v0a.515.515 0 00.802-.646 1.117 1.117 0 01-.165-.337zM13.11 5.3c-.118-.474-.023-.877.29-1.232.55-.622.725-1.385.507-2.206a3.155 3.155 0 00-.483-1.02v0a.516.516 0 00-.924.312.51.51 0 00.104.31h-.001c.002.002.217.294.316.69.118.474.023.878-.29 1.232-.55.622-.725 1.385-.506 2.207.153.576.449.976.482 1.02v-.001a.515.515 0 00.82-.62 2.167 2.167 0 01-.315-.691zm-3.812.678c-.001-.002-.112-.15-.166-.337-.063-.219-.024-.378.13-.533.418-.42.556-.964.389-1.535a2.064 2.064 0 00-.357-.687s0 0 0 0v-.002 0a.514.514 0 10-.793.657c0 .001.11.142.162.321a.472.472 0 01-.13.52c-.418.418-.556.967-.39 1.544.112.39.329.667.353.698v0a.514.514 0 10.802-.646h0z"/></g><defs><clipPath id="clip0"><path fill="#fff" transform="translate(0 .5)" d="M0 0h25v25H0z"/></clipPath></defs></svg>