<svg width="25" height="26" fill="none" xmlns="http://www.w3.org/2000/svg"><path d="M23.066 15.017h-2.13a1.976 1.976 0 00-1.86-1.316c-.84 0-1.56.53-1.844 1.273a7.77 7.77 0 00-1.444-.704v-.682a1.976 1.976 0 001.316-1.86 1.975 1.975 0 00-1.973-1.972h-.658V8.24a1.976 1.976 0 001.315-1.86v-.658h3.288A1.975 1.975 0 0021.05 3.75a1.975 1.975 0 00-1.973-1.973H5.924A1.975 1.975 0 003.95 3.75c0 1.088.885 1.973 1.973 1.973h3.288v.658c0 .857.55 1.588 1.315 1.86v1.516H9.87a1.975 1.975 0 00-1.972 1.973c0 .857.55 1.588 1.315 1.86v.68a7.768 7.768 0 00-1.444.705 1.976 1.976 0 00-1.844-1.273c-.858 0-1.589.55-1.86 1.316h-2.13a.658.658 0 00-.658.657v6.577c0 .363.295.657.658.657h2.13a1.976 1.976 0 001.86 1.316c.84 0 1.56-.53 1.844-1.273 1.311.822 2.979 1.273 4.732 1.273 1.753 0 3.421-.45 4.732-1.273a1.976 1.976 0 001.844 1.273c.858 0 1.589-.55 1.86-1.316h2.13a.658.658 0 00.658-.657v-6.577a.658.658 0 00-.658-.657zM3.951 21.593H2.59v-5.261h1.36v5.261zm2.63.658a.658.658 0 01-1.315 0v-6.577a.658.658 0 011.315 0v6.577zM14.473 6.38a.658.658 0 01-.658.657h-2.63a.658.658 0 01-.658-.657v-.658h3.946v.658zm-1.315 1.973v1.403h-1.316V8.353h1.316zM5.924 4.407a.658.658 0 010-1.315h13.152a.658.658 0 010 1.315H5.924zm3.945 6.664h5.262a.658.658 0 010 1.315H9.869a.658.658 0 010-1.315zm7.235 10.522h-.002a.658.658 0 00-.372.115c-1.128.774-2.63 1.2-4.23 1.2-1.6 0-3.102-.426-4.23-1.2a.658.658 0 00-.372-.115h-.001v-5.261c.133 0 .263-.04.373-.115a6.544 6.544 0 011.792-.846.657.657 0 00.465-.629v-1.04h3.946v1.04c0 .29.189.544.465.629.67.205 1.273.49 1.792.846.11.075.24.115.372.115h.002v5.261zm2.63.658a.658.658 0 01-1.315 0v-6.577a.658.658 0 011.315 0v6.577zm2.674-.658H21.05v-5.261h1.36v5.261z" fill="#4170B7"/></svg>