<svg width="25" height="26" fill="none" xmlns="http://www.w3.org/2000/svg"><path fill="#fff" d="M0 .5h25v25H0z"/><path d="M4.532 12.723h.78a4.522 4.522 0 01-1.54-3.398 4.537 4.537 0 014.532-4.532h1.72a.566.566 0 110 1.133h-1.72a3.403 3.403 0 00-3.399 3.399 3.403 3.403 0 003.399 3.398h5.01a4.537 4.537 0 010-6.798H9.323a.566.566 0 110-1.132h6.989a.44.44 0 01.062.004 4.516 4.516 0 013.142 1.323 4.537 4.537 0 01-.209 6.603h1.162A4.537 4.537 0 0125 17.255a4.537 4.537 0 01-4.532 4.532H4.532A4.537 4.537 0 010 17.255a4.537 4.537 0 014.532-4.532zm4.607 4.532a3.403 3.403 0 003.4 3.399 3.403 3.403 0 003.398-3.4 3.402 3.402 0 00-3.399-3.398 3.403 3.403 0 00-3.399 3.399zm6.392-3.399c.389.343.719.752.972 1.208.254-.457.584-.865.973-1.208H15.53zm3.183-2.128a3.403 3.403 0 000-4.807 3.388 3.388 0 00-2.403-.993c-.87 0-1.741.331-2.404.993a3.403 3.403 0 000 4.807 3.376 3.376 0 002.404.995c.907 0 1.76-.353 2.403-.995zm5.153 5.527a3.403 3.403 0 00-3.399-3.399 3.403 3.403 0 00-3.398 3.399 3.403 3.403 0 003.398 3.399 3.403 3.403 0 003.4-3.4zm-6.391 3.399a4.566 4.566 0 01-.973-1.208 4.564 4.564 0 01-.972 1.208h1.945zm-12.944 0h5.014a4.521 4.521 0 010-6.798H4.532a3.403 3.403 0 00-3.4 3.399 3.403 3.403 0 003.4 3.399z" fill="#4170B7"/><path d="M16.31 7.059a2.268 2.268 0 012.266 2.266 2.268 2.268 0 01-2.265 2.265 2.268 2.268 0 01-2.266-2.265 2.268 2.268 0 012.266-2.266zm0 3.398a1.134 1.134 0 000-2.265 1.134 1.134 0 00.001 2.266zm-3.772 9.063a2.268 2.268 0 01-2.266-2.265 2.268 2.268 0 012.266-2.266 2.268 2.268 0 012.266 2.266 2.268 2.268 0 01-2.266 2.266zm0-3.398a1.134 1.134 0 000 2.266 1.134 1.134 0 000-2.266zm5.665 1.133a2.268 2.268 0 012.265-2.266 2.268 2.268 0 012.266 2.266 2.268 2.268 0 01-2.266 2.266 2.268 2.268 0 01-2.265-2.266zm3.398 0a1.134 1.134 0 10-1.133 1.133c.625 0 1.133-.508 1.133-1.133z" fill="#4170B7"/></svg>