<svg width="25" height="26" fill="none" xmlns="http://www.w3.org/2000/svg"><path d="M22.284 15.088l-.027-.028a2.392 2.392 0 00-3.46 0l-1.117 1.154V5.407h1.047a.524.524 0 00.515-.531V3.032a.524.524 0 00-.515-.532H2.515A.524.524 0 002 3.032v1.844c0 .293.23.531.515.531h1.047V7.7s0 0 0 0v12.894H2.515a.524.524 0 00-.515.532v1.843c0 .294.23.532.515.532h12.527a.524.524 0 00.514-.532.524.524 0 00-.514-.532H3.03v-.78h15.182v1.312c0 .294.23.532.515.532a.524.524 0 00.515-.532v-1.843a.524.524 0 00-.515-.532H17.68V17.72l1.846-1.906a1.384 1.384 0 012.003 0l.027.028c.552.57.552 1.498 0 2.068l-.58.6a.544.544 0 000 .751.504.504 0 00.729 0l.58-.599a2.588 2.588 0 000-3.573zm-11.15 5.505l5.516-5.696v2.381l-3.21 3.315h-2.306zM7 5.407h2.33l-4.738 4.894V7.92L6.92 5.516A.528.528 0 007 5.407zm-2.408 6.399l6.196-6.399h2.306l-7.249 7.485a.544.544 0 000 .753.506.506 0 00.729 0l7.977-8.238h2.1v.214L4.59 18.073v-6.267zM3.03 3.564h15.182v.78H3.03v-.78zm2.538 1.843l-.976 1.008V5.407h.976zm-.976 14.17L16.65 7.125v6.267l-6.973 7.2H7.371l8.469-8.744a.544.544 0 000-.752.504.504 0 00-.729 0l-9.197 9.497H4.592v-1.016zm12.058 1.016h-1.753l1.753-1.81v1.81z" fill="#4170B7" stroke="#4170B7" stroke-width=".2"/></svg>