<svg width="25" height="25" fill="none" xmlns="http://www.w3.org/2000/svg"><g clip-path="url(#clip0)"><path d="M23.338 14.289l-.594-.333h.192a.61.61 0 00.61-.61v-4.87a.61.61 0 00-.312-.53L11.404.082c-.195-.109.024-.078-4.214-.078a.61.61 0 00-.61.61v4.261H4.628a.61.61 0 00-.61.61v4.261h-2.06a.61.61 0 00-.61.61v4.87c0 .22.12.424.313.532l14.499 9.337c.194.108-.031.077 4.212.077a.61.61 0 00.61-.61v-4.26h2.059c.337 0 .61-1.23.61-1.566V14.82a.61.61 0 00-.313-.532zM10.946 1.224l9.657 6.643H19.18L9.523 1.224h1.423zm11.38 7.862v3.65h-1.764l-.931-.52v-3.13h2.695zM7.8 1.656l10.611 7.177v2.701C8.198 4.594 8.77 4.875 8.541 4.875h-.74v-3.22zm.583 4.439L20.7 14.21h-1.416L6.967 6.095h1.416zm8.233 12.987c-.39-.218-11.979-7.927-12.317-8.116h1.415l12.318 8.116h-1.416zM5.236 6.524c.566.316 12.821 8.398 13.28 8.655v2.777L6.171 9.824c-.176-.099-.26-.078-.934-.078V6.524zm-2.668 8.344v-3.473l13.28 8.655v3.473l-13.28-8.655zm17.194 9.085h-2.695v-3.651h2.695v3.65zm2.669-4.872H20.53l-.794-.443V15.43h2.695v3.65z" fill="#4170B7"/></g><defs><clipPath id="clip0"><path fill="#fff" d="M0 0h25v25H0z"/></clipPath></defs></svg>