<svg width="25" height="26" fill="none" xmlns="http://www.w3.org/2000/svg"><path d="M24.84 19.502l-.001-.02c0-.004 0-.009-.002-.013 0-.008-.002-.015-.003-.022 0-.004 0-.008-.002-.011a.45.45 0 00-.006-.033l-3.6-14.397a.513.513 0 00-.5-.39H4.274a.514.514 0 00-.499.39l-3.6 14.397-.007.033c0 .003 0 .007-.002.012l-.003.02-.001.014-.001.02v2.555a.515.515 0 00.683.486l2.775-.97 2.8.97a.512.512 0 00.338 0l2.787-.97 2.788.97a.507.507 0 00.338 0l2.787-.97 2.788.97c.11.039.23.039.338 0l2.788-.97 2.788.97a.521.521 0 00.466-.066.514.514 0 00.217-.42v-2.54l-.001-.015zm-1.243-.772l-2.058-.717a.519.519 0 00-.338 0l-2.356.82-.512-4.096 2.102-.727 2.174.768.988 3.952zm-2.144-8.577l.857 3.43-1.703-.602a.515.515 0 00-.34-.001l-2.065.714-.448-3.588 1.762-.617 1.937.664zm-1.127-4.509l.83 3.32-1.474-.506a.513.513 0 00-.338.001l-1.72.603-.428-3.418h3.13zm-7.312 0h3.145l.42 3.358-1.574-.543a.511.511 0 00-.336 0l-1.655.576v-3.39zm0 4.48l1.824-.635 1.883.65.436 3.486-1.842-.645a.512.512 0 00-.338 0l-1.963.682v-3.539zm0 4.627l2.13-.741 2.156.754.5 4.006-2.174-.757a.52.52 0 00-.338 0l-2.274.791v-4.053zM8.84 5.644h3.146v3.39L10.33 8.46a.514.514 0 00-.337 0l-1.573.543.42-3.358zm3.146 9.107v4.053l-2.274-.79a.518.518 0 00-.338 0L7.2 18.77l.5-4.005 2.155-.755 2.13.741zM8.278 10.14l1.883-.651 1.825.634v3.54l-1.963-.683a.514.514 0 00-.338 0l-1.843.646.436-3.486zM4.674 5.643h3.13l-.427 3.418-1.72-.603a.513.513 0 00-.338 0l-1.475.506.83-3.32zm-1.127 4.51l1.938-.665 1.76.617-.447 3.587-2.067-.713a.513.513 0 00-.339 0l-1.702.602.857-3.429zM2.39 14.777l2.176-.768 2.101.725-.512 4.099-2.369-.82a.516.516 0 00-.338 0l-2.044.714.986-3.95zm21.422 6.556l-2.273-.79a.519.519 0 00-.338 0l-2.788.969-2.787-.97a.521.521 0 00-.338 0l-2.788.97-2.788-.97a.519.519 0 00-.338 0l-2.788.97-2.8-.97a.519.519 0 00-.338 0l-2.26.79v-1.44l2.43-.85 2.8.97.016.006a.39.39 0 00.031.008l.018.004a.402.402 0 00.04.007c.005 0 .01 0 .015.002h.01l.04.002c.008 0 .016 0 .025-.002h.018c.01-.001.018-.003.028-.003l.016-.003.027-.006.016-.003.026-.008.012-.004 2.787-.97 2.788.97.007.003.022.006.024.006a.942.942 0 01.021.005l.029.005.018.002a.518.518 0 00.096 0l.018-.002.028-.005.022-.005.024-.006.022-.006.007-.003 2.788-.97 2.787.97.012.004.026.008.017.003.027.006.016.003.027.003.024.001h.06l.01-.002h.014c.003-.002.005-.002.008-.002a.458.458 0 00.033-.006l.017-.004a.501.501 0 00.047-.014l2.788-.97 2.442.85v1.441z" fill="#4170B7" stroke="#4170B7" stroke-width=".2"/></svg>