<svg width="25" height="25" fill="none" xmlns="http://www.w3.org/2000/svg"><g clip-path="url(#clip0)"><path d="M24.747 13.095l-7.128-4.277.89-.566a.521.521 0 000-.88l-5.73-3.645a.522.522 0 00-.56 0L6.492 7.373a.521.521 0 000 .88l.89.566-7.128 4.276a.52.52 0 00-.003.891l11.98 7.292a.517.517 0 00.54 0l11.98-7.292a.523.523 0 00-.003-.891zM12.5 4.785l4.76 3.027-4.76 3.029-4.76-3.029 4.76-3.028zM8.363 9.443l3.857 2.454a.525.525 0 00.56 0l3.856-2.455.687.412-4.823 3.07-4.824-3.07.687-.411zm-6.835 4.099l5.15-3.089 4.852 3.088-4.891 3.112-5.11-3.111zm10.972 6.68l-4.87-2.965 4.87-3.099 4.87 3.1-4.87 2.964zm5.861-3.568l-4.891-3.113 4.852-3.088 5.15 3.09-5.11 3.111z" fill="#4170B7" stroke="#4170B7" stroke-width=".2"/></g><defs><clipPath id="clip0"><path fill="#fff" d="M0 0h25v25H0z"/></clipPath></defs></svg>