<svg width="25" height="26" fill="none" xmlns="http://www.w3.org/2000/svg"><g clip-path="url(#clip0)" fill="#4170B7" stroke="#4170B7" stroke-width=".2"><path d="M22.27 13.25c0-6.17-1.03-9.77-1.03-9.77h-.016L22.27.91H2.73l1.046 2.57h-.017S2.73 7.08 2.73 13.25s1.03 9.769 1.03 9.769h.016L2.73 25.59h19.54l-1.046-2.571h.017s1.029-3.599 1.029-9.769zM6.844 1.938a.514.514 0 101.028 0h1.029a.514.514 0 001.028 0h1.028a.514.514 0 001.029 0h1.028a.514.514 0 101.029 0h1.028a.514.514 0 001.028 0h1.029a.514.514 0 001.028 0h2.585l-.627 1.543H4.886L4.26 1.938h2.585zM4.254 6.26c.112-.743.227-1.332.317-1.75H20.43c.09.419.204 1.007.317 1.75.112.738.235 1.707.33 2.877h-3.94A6.187 6.187 0 0012.5 7.048c-1.843 0-3.5.808-4.637 2.088h-3.94c.095-1.17.218-2.14.33-2.877zm13.42 6.991a5.18 5.18 0 01-5.174 5.174 5.18 5.18 0 01-5.174-5.174A5.18 5.18 0 0112.5 8.076a5.18 5.18 0 015.174 5.174zm-13.915 0c0-1.122.036-2.154.091-3.085h3.27a6.165 6.165 0 00-.822 3.085c0 1.122.3 2.176.823 3.085H3.85a51.666 51.666 0 01-.092-3.085zm14.397 11.311a.514.514 0 00-1.028 0h-1.029a.515.515 0 00-1.028 0h-1.028a.514.514 0 00-1.029 0h-1.028a.514.514 0 00-1.029 0H9.93a.514.514 0 00-1.028 0h-1.03a.514.514 0 00-1.028 0H4.26l.627-1.542h15.228l.627 1.542h-2.585zm2.59-4.32a29.847 29.847 0 01-.316 1.75H4.57a29.823 29.823 0 01-.317-1.75 41.53 41.53 0 01-.33-2.877h3.94a6.187 6.187 0 004.637 2.088c1.843 0 3.5-.808 4.637-2.088h3.94a41.57 41.57 0 01-.33 2.877zm.404-3.906h-3.27c.523-.91.822-1.963.822-3.085a6.17 6.17 0 00-.823-3.085h3.27a51.602 51.602 0 010 6.17z"/><path d="M15.57 11.707H9.43a.514.514 0 100 1.029h6.14a.514.514 0 000-1.029zm-1.536 2.057h-3.068a.515.515 0 000 1.029h3.068a.514.514 0 100-1.029z"/></g><defs><clipPath id="clip0"><path fill="#fff" transform="translate(0 .75)" d="M0 0h25v25H0z"/></clipPath></defs></svg>