<svg width="25" height="25" viewBox="0 0 25 25" fill="none" xmlns="http://www.w3.org/2000/svg">
<path fill-rule="evenodd" clip-rule="evenodd" d="M23.8355 6.82713L12.815 1.0773C12.6181 0.974228 12.3826 0.974236 12.1856 1.0773L1.16522 6.82709C0.941377 6.94375 0.799805 7.17474 0.799805 7.42901C0.799805 7.68319 0.941394 7.91423 1.16516 8.03091L12.1855 13.7807C12.2839 13.8325 12.3926 13.8582 12.4998 13.8582C12.607 13.8582 12.7161 13.8323 12.8146 13.7804L23.8345 8.03091C24.0582 7.91425 24.1998 7.68327 24.1998 7.42901C24.1998 7.17491 24.058 6.94387 23.8355 6.82713ZM2.94724 7.42901L12.4998 2.44411L22.0524 7.42896L12.4998 12.4139L2.94724 7.42901Z" fill="#4170B7"/>
<path d="M22.2319 10.8231C21.9025 10.6544 21.4912 10.7774 21.3165 11.1117C21.1426 11.4446 21.2719 11.8548 21.6044 12.0285L22.0524 12.2623L12.4998 17.2472L2.94781 12.2626L3.39624 12.0294C3.72875 11.8557 3.8579 11.4456 3.68413 11.1128C3.5092 10.7768 3.09757 10.6556 2.76875 10.8241L1.16513 11.6604C0.941345 11.7771 0.799805 12.0081 0.799805 12.2623C0.799805 12.5165 0.941394 12.7475 1.16516 12.8642L12.1856 18.614C12.284 18.6659 12.3927 18.6915 12.4998 18.6915C12.607 18.6915 12.7161 18.6656 12.8146 18.6137L23.8345 12.8642C24.0582 12.7476 24.1998 12.5166 24.1998 12.2623C24.1998 12.0081 24.0583 11.7777 23.8367 11.6601L22.2332 10.8238L22.2319 10.8231Z" fill="#4170B7"/>
<path d="M22.2319 15.6565C21.9025 15.4877 21.4912 15.6107 21.3165 15.945C21.1426 16.2779 21.2719 16.6881 21.6044 16.8618L22.0524 17.0956L12.4998 22.0805L2.94781 17.0959L3.39624 16.8627C3.72879 16.689 3.85791 16.2788 3.68407 15.946C3.50971 15.6122 3.09773 15.4875 2.76744 15.6581L1.16512 16.4938C0.941323 16.6104 0.799805 16.8415 0.799805 17.0956C0.799805 17.3498 0.941359 17.5809 1.16516 17.6975L12.1855 23.4473C12.2839 23.4992 12.3926 23.5248 12.4998 23.5248C12.607 23.5248 12.7161 23.4989 12.8146 23.447L23.8345 17.6975C24.0582 17.5809 24.1998 17.3499 24.1998 17.0956C24.1998 16.8414 24.0584 16.6111 23.8367 16.4935L22.2332 15.6571L22.2319 15.6565Z" fill="#4170B7"/>
</svg>
