<svg width="25" height="26" viewBox="0 0 25 26" fill="none" xmlns="http://www.w3.org/2000/svg">
<path d="M18.6514 9.9538L13.8544 11.0028L16.1999 2.78928C16.4036 2.07542 15.4491 1.61811 15.0211 2.22611L5.6646 15.5193C5.31279 16.0192 5.77139 16.69 6.36468 16.5439L10.639 15.4917L8.30116 23.7131C8.09973 24.4214 9.0375 24.8729 9.47053 24.2888L19.3251 10.9955C19.6888 10.5049 19.2479 9.82343 18.6514 9.9538ZM10.5687 20.5825L12.2253 14.7569C12.3638 14.2698 11.9244 13.8107 11.4298 13.9325L7.76696 14.8341L13.8506 6.19098L12.276 11.7049C12.139 12.1848 12.564 12.6414 13.0545 12.5339L17.2087 11.6255L10.5687 20.5825Z" fill="#4170B7"/>
<path d="M18.2233 20.5821L16.6334 20.5556L17.4778 18.8949C17.6437 18.5687 17.5137 18.1699 17.1876 18.0041C16.8614 17.8382 16.4627 17.9682 16.2968 18.2944L14.9719 20.9C14.7024 21.4285 15.0551 21.7748 15.5631 21.8628L17.1492 21.8893L16.2949 23.598C16.1312 23.9253 16.2639 24.3232 16.5911 24.4868C16.919 24.6508 17.3166 24.5172 17.4799 24.1906L18.8048 21.5408C19.0224 21.1054 18.7075 20.5892 18.2233 20.5821Z" fill="#4170B7"/>
<path d="M7.90848 2.01489C7.58122 1.8513 7.18331 1.98393 7.01968 2.31114L5.69478 4.96094C5.4793 5.39194 5.78659 5.91965 6.29116 5.91965H7.86524L7.01968 7.61075C6.85606 7.938 6.98873 8.33587 7.31593 8.49954C7.6438 8.66348 8.04141 8.52988 8.20473 8.20329L9.52963 5.55349C9.75005 5.1126 9.42585 4.59478 8.93709 4.59478H7.35917L8.20473 2.90368C8.36835 2.57643 8.23568 2.17851 7.90848 2.01489Z" fill="#4170B7"/>
</svg>
