<svg width="25" height="26" viewBox="0 0 25 26" fill="none" xmlns="http://www.w3.org/2000/svg">
<g clip-path="url(#clip0)">
<path d="M24.3376 6.30072C24.0526 6.30072 23.8219 6.53102 23.8219 6.81527V10.9328H22.7935V9.90328C22.7935 8.76827 21.8693 7.84475 20.7338 7.84475C20.1202 7.84475 19.5683 8.11539 19.1898 8.54395C18.8129 8.11539 18.261 7.84475 17.6458 7.84475C17.0321 7.84475 16.4803 8.11539 16.1018 8.54395C15.7249 8.11539 15.173 7.84475 14.5578 7.84475C13.9441 7.84475 13.3922 8.11539 13.0141 8.54395C12.6368 8.11539 12.0849 7.84475 11.4701 7.84475C10.8561 7.84475 10.3038 8.11539 9.92609 8.54395C9.54877 8.11539 8.99687 7.84475 8.38206 7.84475C7.76802 7.84475 7.21579 8.11539 6.83803 8.54395C6.46071 8.11539 5.90881 7.84475 5.294 7.84475C4.33694 7.84475 3.52946 8.50173 3.30027 9.38873H1.69149C1.40724 9.38873 1.17694 9.61903 1.17694 9.90328V10.9328H0.662009C0.377763 10.9328 0.147461 11.1631 0.147461 11.4473C0.147461 11.7316 0.377763 11.9619 0.662009 11.9619H1.17694V12.9913C1.17694 13.2756 1.40724 13.5059 1.69149 13.5059H3.23552V23.2853C3.23552 24.42 4.15909 25.3435 5.2941 25.3435C5.90891 25.3435 6.4608 25.0721 6.83813 24.6438C7.21583 25.0721 7.76807 25.3435 8.38215 25.3435C8.99697 25.3435 9.54886 25.0721 9.92618 24.6438C10.3039 25.0721 10.8561 25.3435 11.4702 25.3435C12.085 25.3435 12.6369 25.0721 13.0142 24.6438C13.3923 25.0721 13.9442 25.3435 14.5579 25.3435C15.1731 25.3435 15.725 25.0721 16.1019 24.6438C16.4804 25.0721 17.0322 25.3435 17.6459 25.3435C18.2611 25.3435 18.813 25.0721 19.1899 24.6438C19.5684 25.0721 20.1203 25.3435 20.7339 25.3435C21.8693 25.3435 22.7936 24.4199 22.7936 23.2853V11.9619H24.3377C24.6211 11.9619 24.8518 11.7316 24.8518 11.4473V6.81527C24.8517 6.53102 24.621 6.30072 24.3376 6.30072ZM3.23552 12.4768H2.20604V10.4178H3.23552V12.4768ZM6.32353 23.2853C6.32353 23.8522 5.86211 24.3136 5.29405 24.3136C4.72676 24.3136 4.26495 23.8522 4.26495 23.2853V12.9913V9.90328C4.26495 9.33594 4.72671 8.8738 5.29405 8.8738C5.86211 8.8738 6.32353 9.33594 6.32353 9.90328V23.2853ZM9.41159 23.2853C9.41154 23.8522 8.95016 24.3136 8.38211 24.3136C7.81482 24.3136 7.35301 23.8522 7.35301 23.2853V9.90328C7.35301 9.33594 7.81477 8.8738 8.38211 8.8738C8.95016 8.8738 9.41159 9.33594 9.41159 9.90328V23.2853ZM12.4996 23.2853C12.4996 23.8522 12.0382 24.3136 11.4701 24.3136C10.9028 24.3136 10.441 23.8522 10.441 23.2853V9.90328C10.441 9.33594 10.9028 8.8738 11.4701 8.8738C12.0382 8.8738 12.4996 9.33594 12.4996 9.90328V23.2853ZM15.5877 23.2853C15.5877 23.8522 15.1263 24.3136 14.5578 24.3136C13.9908 24.3136 13.5295 23.8522 13.5295 23.2853V9.90328C13.5295 9.33594 13.9908 8.8738 14.5578 8.8738C15.1262 8.8738 15.5877 9.33594 15.5877 9.90328V23.2853ZM18.6757 23.2853C18.6757 23.8522 18.2143 24.3136 17.6458 24.3136C17.0789 24.3136 16.6175 23.8522 16.6175 23.2853V9.90328C16.6175 9.33594 17.0789 8.8738 17.6458 8.8738C18.2142 8.8738 18.6757 9.33594 18.6757 9.90328V23.2853ZM21.7637 23.2853C21.7637 23.8522 21.3023 24.3136 20.7338 24.3136C20.1669 24.3136 19.7055 23.8522 19.7055 23.2853V9.90328C19.7055 9.33594 20.1669 8.8738 20.7338 8.8738C21.3023 8.8738 21.7637 9.33594 21.7637 9.90328V23.2853Z" fill="#4170B7" stroke="#4170B7" stroke-width="0.2"/>
<path d="M17.3666 5.64146C17.3033 5.42245 17.3424 5.26298 17.4963 5.10804C17.9139 4.6885 18.0527 4.1438 17.8853 3.57309C17.7737 3.19007 17.5566 2.91943 17.5294 2.88551C17.5279 2.88551 17.5279 2.88512 17.5279 2.88512V2.8844C17.4329 2.77058 17.2912 2.69781 17.1313 2.69781C16.8471 2.69781 16.6172 2.9285 16.6172 3.21275C16.6172 3.33753 16.6609 3.45212 16.7349 3.5411C16.7364 3.54221 16.8449 3.68286 16.8977 3.86225C16.9588 4.07296 16.9203 4.22828 16.7665 4.38172C16.3504 4.80044 16.2109 5.34891 16.3767 5.92565C16.4891 6.31658 16.7062 6.59325 16.7303 6.6238V6.62341C16.8253 6.74027 16.9693 6.8153 17.1314 6.8153C17.4156 6.8153 17.6456 6.585 17.6456 6.30076C17.6456 6.17825 17.6033 6.06592 17.5325 5.97772C17.531 5.97622 17.4194 5.82881 17.3666 5.64146Z" fill="#4170B7" stroke="#4170B7" stroke-width="0.2"/>
<path d="M13.1105 5.30069C12.9917 4.8261 13.0867 4.42277 13.4 4.06803C13.9503 3.44602 14.1252 2.68347 13.9066 1.86171C13.7528 1.28569 13.4573 0.885735 13.4241 0.84202V0.842792C13.3291 0.719511 13.1817 0.639221 13.0144 0.639221C12.73 0.639221 12.4997 0.869523 12.4997 1.15377C12.4997 1.27025 12.5386 1.37732 12.6037 1.46325H12.603C12.6052 1.46624 12.8197 1.75801 12.9189 2.1542C13.0372 2.62836 12.9422 3.03174 12.6286 3.38643C12.079 4.00844 11.9041 4.77104 12.1228 5.5928C12.2758 6.16882 12.5718 6.56877 12.6045 6.61249L12.6053 6.61172C12.6991 6.73572 12.8473 6.81529 13.0143 6.81529C13.2989 6.81529 13.5296 6.58499 13.5296 6.30074C13.5296 6.18426 13.4905 6.07719 13.4256 5.99126C13.4233 5.98827 13.2089 5.69649 13.1105 5.30069Z" fill="#4170B7" stroke="#4170B7" stroke-width="0.2"/>
<path d="M9.29793 5.97772C9.29682 5.97622 9.18561 5.82881 9.13171 5.64146C9.06874 5.42245 9.10758 5.26298 9.26175 5.10804C9.67979 4.6885 9.81774 4.1438 9.65074 3.57309C9.5388 3.19007 9.32317 2.9202 9.29412 2.88551C9.29412 2.88551 9.29412 2.88512 9.29374 2.88512L9.29335 2.88401V2.8844C9.19873 2.77058 9.05663 2.69781 8.89716 2.69781C8.61292 2.69781 8.38223 2.9285 8.38223 3.21275C8.38223 3.33753 8.42672 3.45212 8.50059 3.5411C8.5017 3.54221 8.61026 3.68286 8.66266 3.86225C8.72447 4.07296 8.68529 4.22828 8.53224 4.38172C8.11535 4.80044 7.97663 5.34891 8.14252 5.92565C8.25485 6.31658 8.47197 6.59325 8.49649 6.6238V6.62341C8.59111 6.74027 8.73509 6.8153 8.89721 6.8153C9.18146 6.8153 9.41176 6.585 9.41176 6.30076C9.41176 6.17825 9.36877 6.06592 9.29755 5.97772H9.29793Z" fill="#4170B7" stroke="#4170B7" stroke-width="0.2"/>
</g>
<defs>
<clipPath id="clip0">
<rect width="25" height="25" fill="white" transform="translate(0 0.5)"/>
</clipPath>
</defs>
</svg>
