<svg width="25" height="26" viewBox="0 0 25 26" fill="none" xmlns="http://www.w3.org/2000/svg">
<path d="M23.066 15.0168H20.9362C20.6647 14.2514 19.9337 13.7015 19.0764 13.7015C18.2351 13.7015 17.5154 14.231 17.2323 14.9741C16.7906 14.6972 16.3074 14.4611 15.7882 14.2699V13.5884C16.5536 13.3169 17.1035 12.5859 17.1035 11.7286C17.1035 10.6407 16.2184 9.75568 15.1306 9.75568H14.4729V8.23961C15.2384 7.96814 15.7882 7.23715 15.7882 6.37982V5.72218H19.0764C20.1642 5.72218 21.0493 4.83713 21.0493 3.74927C21.0493 2.66141 20.1642 1.77637 19.0764 1.77637H5.92366C4.8358 1.77637 3.95075 2.66141 3.95075 3.74927C3.95075 4.83713 4.8358 5.72218 5.92366 5.72218H9.21183V6.37982C9.21183 7.23715 9.76166 7.96814 10.5271 8.23961V9.75568H9.86947C8.78161 9.75568 7.89656 10.6407 7.89656 11.7286C7.89656 12.5859 8.44639 13.3169 9.21183 13.5884V14.2699C8.69252 14.4611 8.20942 14.6972 7.76771 14.9741C7.48453 14.231 6.76495 13.7015 5.92366 13.7015C5.06632 13.7015 4.33534 14.2514 4.06386 15.0168H1.934C1.57081 15.0168 1.27637 15.3112 1.27637 15.6744V22.2507C1.27637 22.6139 1.57081 22.9084 1.934 22.9084H4.06386C4.33534 23.6738 5.06632 24.2237 5.92366 24.2237C6.76482 24.2237 7.48436 23.6943 7.76758 22.9514C9.07904 23.7734 10.7467 24.2237 12.5 24.2237C14.2533 24.2237 15.921 23.7734 17.2324 22.9514C17.5157 23.6943 18.2352 24.2237 19.0764 24.2237C19.9337 24.2237 20.6647 23.6738 20.9362 22.9084H23.066C23.4292 22.9084 23.7237 22.6139 23.7237 22.2507V15.6744C23.7237 15.3112 23.4292 15.0168 23.066 15.0168ZM3.95075 21.5931H2.59164V16.332H3.95075V21.5931ZM6.58129 22.2507C6.58129 22.6134 6.28628 22.9084 5.92366 22.9084C5.56104 22.9084 5.26602 22.6134 5.26602 22.2507V15.6744C5.26602 15.3118 5.56104 15.0168 5.92366 15.0168C6.28628 15.0168 6.58129 15.3118 6.58129 15.6744V22.2507ZM14.4729 6.37982C14.4729 6.74243 14.1779 7.03745 13.8153 7.03745H11.1847C10.8221 7.03745 10.5271 6.74243 10.5271 6.37982V5.72218H14.4729V6.37982ZM13.1576 8.35272V9.75568H11.8424V8.35272H13.1576ZM5.92366 4.40691C5.56104 4.40691 5.26602 4.11189 5.26602 3.74927C5.26602 3.38665 5.56104 3.09164 5.92366 3.09164H19.0764C19.439 3.09164 19.734 3.38665 19.734 3.74927C19.734 4.11189 19.439 4.40691 19.0764 4.40691C18.7546 4.40691 7.4403 4.40691 5.92366 4.40691ZM9.86947 11.0709C10.4307 11.0709 14.5696 11.0709 15.1306 11.0709C15.4932 11.0709 15.7882 11.366 15.7882 11.7286C15.7882 12.0912 15.4932 12.3862 15.1306 12.3862H9.86947C9.50685 12.3862 9.21183 12.0912 9.21183 11.7286C9.21183 11.366 9.50685 11.0709 9.86947 11.0709ZM17.1035 21.5931H17.1025C16.9697 21.5931 16.84 21.6333 16.7305 21.7084C15.6024 22.4822 14.1 22.9084 12.5 22.9084C10.9 22.9084 9.39759 22.4822 8.26953 21.7084C8.16001 21.6333 8.03033 21.5931 7.89753 21.5931H7.89656V16.332H7.89753C8.03033 16.332 8.16001 16.2918 8.26953 16.2167C8.78889 15.8605 9.39189 15.5759 10.0618 15.371C10.3383 15.2865 10.5271 15.0313 10.5271 14.7422V13.7015H14.4729V14.7422C14.4729 15.0313 14.6617 15.2865 14.9382 15.371C15.6081 15.5759 16.2111 15.8605 16.7305 16.2167C16.8401 16.2918 16.9697 16.332 17.1025 16.332H17.1035V21.5931ZM19.734 22.2507C19.734 22.6134 19.439 22.9084 19.0764 22.9084C18.7137 22.9084 18.4187 22.6134 18.4187 22.2507V15.6744C18.4187 15.3118 18.7137 15.0168 19.0764 15.0168C19.439 15.0168 19.734 15.3118 19.734 15.6744V22.2507ZM22.4084 21.5931H21.0493V16.332H22.4084V21.5931Z" fill="#4170B7"/>
</svg>
