<svg width="25" height="26" viewBox="0 0 25 26" fill="none" xmlns="http://www.w3.org/2000/svg">
<rect width="25" height="25" transform="translate(0 0.5)" fill="white"/>
<path d="M4.53169 12.7234H5.31139C4.36885 11.8923 3.77235 10.6772 3.77235 9.32469C3.77235 6.82587 5.80522 4.793 8.30405 4.793H10.0238C10.3367 4.793 10.5902 5.04655 10.5902 5.35941C10.5902 5.67226 10.3367 5.92581 10.0238 5.92581H8.30405C6.43004 5.92581 4.90539 7.45046 4.90539 9.32469C4.90539 11.1987 6.43004 12.7234 8.30405 12.7234H13.3143C13.2435 12.6607 13.1736 12.5964 13.1061 12.5289C11.3394 10.7619 11.3394 7.88721 13.1061 6.12029C13.1738 6.05259 13.2438 5.98843 13.3146 5.92581H9.32194C9.00909 5.92581 8.75554 5.67226 8.75554 5.35941C8.75554 5.04655 9.00909 4.793 9.32194 4.793H16.3105C16.3316 4.793 16.3523 4.79433 16.3729 4.79654C17.5124 4.81225 18.6472 5.25276 19.5147 6.12029C21.2816 7.88721 21.2816 10.7619 19.5147 12.5289C19.4472 12.5966 19.3773 12.6607 19.3065 12.7234H20.4676C22.9665 12.7234 25 14.7562 25 17.255C25 19.7536 22.9671 21.7865 20.4683 21.7865H4.53169C2.03287 21.7865 0 19.7536 0 17.255C0 14.7562 2.03287 12.7234 4.53169 12.7234ZM9.1393 17.2548C9.1393 19.1291 10.6639 20.6537 12.5382 20.6537C14.4122 20.6537 15.9368 19.1291 15.9368 17.2548C15.9368 15.3808 14.4122 13.8562 12.5382 13.8562C10.6639 13.8562 9.1393 15.3808 9.1393 17.2548ZM15.5306 13.8562C15.9198 14.1993 16.2499 14.6075 16.5032 15.0642C16.7566 14.6075 17.0867 14.1993 17.4756 13.8562H15.5306ZM18.7138 11.7279C20.0389 10.4026 20.0389 8.24653 18.7138 6.92145C18.0511 6.2588 17.1809 5.92758 16.3105 5.92758C15.4403 5.92758 14.5697 6.25902 13.9073 6.92145C12.5822 8.24653 12.5822 10.4026 13.9073 11.7279C14.5491 12.3698 15.4027 12.7234 16.3105 12.7234C17.2183 12.7234 18.0717 12.3698 18.7138 11.7279ZM23.8672 17.2548C23.8672 15.3808 22.3425 13.8562 20.4683 13.8562C18.5943 13.8562 17.0696 15.3808 17.0696 17.2548C17.0696 19.1291 18.5943 20.6537 20.4683 20.6537C22.3425 20.6537 23.8672 19.1291 23.8672 17.2548ZM17.4759 20.6537C17.0867 20.3105 16.7566 19.9023 16.5032 19.4457C16.2499 19.9023 15.9198 20.3105 15.5306 20.6537H17.4759ZM4.53169 20.6537H9.54552C8.60276 19.8227 8.00648 18.6073 8.00648 17.2548C8.00648 15.9023 8.60298 14.6872 9.54552 13.8562H4.53169C2.65746 13.8562 1.13281 15.3808 1.13281 17.2548C1.13281 19.1291 2.65746 20.6537 4.53169 20.6537Z" fill="#4170B7"/>
<path d="M16.3105 7.05887C17.5599 7.05887 18.5764 8.07531 18.5764 9.32472C18.5764 10.5739 17.5599 11.5903 16.3105 11.5903C15.0611 11.5903 14.0447 10.5739 14.0447 9.32472C14.0447 8.07531 15.0611 7.05887 16.3105 7.05887ZM16.3105 10.4575C16.9351 10.4575 17.4433 9.94932 17.4433 9.32472C17.4433 8.6999 16.9351 8.19168 16.3105 8.19168C15.6857 8.19168 15.1775 8.6999 15.1775 9.32472C15.1775 9.94932 15.6857 10.4575 16.3105 10.4575Z" fill="#4170B7"/>
<path d="M12.5382 19.5207C11.2888 19.5207 10.2723 18.5042 10.2723 17.2548C10.2723 16.0056 11.2888 14.9892 12.5382 14.9892C13.7874 14.9892 14.8038 16.0056 14.8038 17.2548C14.8038 18.5042 13.7874 19.5207 12.5382 19.5207ZM12.5382 16.122C11.9134 16.122 11.4051 16.6302 11.4051 17.2548C11.4051 17.8796 11.9134 18.3879 12.5382 18.3879C13.1628 18.3879 13.671 17.8796 13.671 17.2548C13.671 16.6302 13.1628 16.122 12.5382 16.122Z" fill="#4170B7"/>
<path d="M18.2027 17.2548C18.2027 16.0056 19.2191 14.9892 20.4683 14.9892C21.7177 14.9892 22.7342 16.0056 22.7342 17.2548C22.7342 18.5042 21.7177 19.5207 20.4683 19.5207C19.2191 19.5207 18.2027 18.5042 18.2027 17.2548ZM21.6013 17.2548C21.6013 16.6302 21.0931 16.122 20.4683 16.122C19.8437 16.122 19.3355 16.6302 19.3355 17.2548C19.3355 17.8796 19.8437 18.3879 20.4683 18.3879C21.0931 18.3879 21.6013 17.8796 21.6013 17.2548Z" fill="#4170B7"/>
</svg>
