<svg width="25" height="26" viewBox="0 0 25 26" fill="none" xmlns="http://www.w3.org/2000/svg">
<path d="M22.2843 15.0885L22.2572 15.0604C21.7951 14.5833 21.1809 14.3206 20.5275 14.3206C19.8741 14.3206 19.2599 14.5833 18.7978 15.0604L17.6803 16.2144V5.40739H18.7268C19.0113 5.40739 19.2419 5.16934 19.2419 4.87555V3.03184C19.2419 2.73805 19.0113 2.5 18.7268 2.5H2.51504C2.23053 2.5 2 2.73805 2 3.03184V4.87555C2 5.16934 2.23053 5.40739 2.51504 5.40739H3.56152V7.69912C3.56152 7.69933 3.56152 7.69962 3.56152 7.69983V20.5926H2.51504C2.23053 20.5926 2 20.8307 2 21.1245V22.9682C2 23.2619 2.23053 23.5 2.51504 23.5H15.0415C15.326 23.5 15.5565 23.2619 15.5565 22.9682C15.5565 22.6744 15.326 22.4363 15.0415 22.4363H3.03007V21.6563H4.07656H17.1654H18.2118V22.9682C18.2118 23.2619 18.4424 23.5 18.7269 23.5C19.0114 23.5 19.2419 23.2619 19.2419 22.9682V21.1245C19.2419 20.8307 19.0114 20.5926 18.7269 20.5926H17.6804V17.7188L19.5264 15.8127C19.7938 15.5364 20.1493 15.3843 20.5275 15.3843C20.9058 15.3843 21.2613 15.5365 21.5292 15.8131L21.5564 15.8412C22.1085 16.4112 22.1085 17.3389 21.5564 17.9089L20.9762 18.5081C20.7751 18.7159 20.7751 19.0525 20.9762 19.2602C21.1774 19.4679 21.5035 19.4679 21.7046 19.2602L22.2848 18.6611C23.2385 17.6762 23.2385 16.0737 22.2843 15.0885ZM11.1343 20.5926L16.6503 14.8967V17.2781L13.4405 20.5926H11.1343ZM6.99991 5.40739H9.33083L4.5916 10.3012V7.9198L6.91956 5.51581C6.9517 5.4827 6.97807 5.44597 6.99991 5.40739ZM4.5916 11.8056L10.7877 5.40732H13.0938L5.84526 12.8924C5.64413 13.1002 5.64413 13.4369 5.84526 13.6446C5.94587 13.7484 6.07772 13.8003 6.2095 13.8003C6.34128 13.8003 6.47313 13.7484 6.57373 13.6446L14.5507 5.40739H16.6503V5.62069L4.5916 18.0728V11.8056ZM3.03007 3.56368H18.2118V4.34371H17.1654H4.07656H3.03007V3.56368ZM5.56776 5.40739L4.5916 6.4154V5.40739H5.56776ZM4.5916 19.5772L16.6503 7.12502V13.3923L9.67748 20.5926H7.37128L15.8398 11.8479C16.0409 11.6401 16.0409 11.3034 15.8398 11.0957C15.6386 10.8882 15.3125 10.888 15.1114 11.0957L5.91442 20.5926H4.5916V19.5772ZM16.6503 20.5926H14.8974L16.6503 18.7825V20.5926Z" fill="#4170B7" stroke="#4170B7" stroke-width="0.2"/>
</svg>
