<svg width="25" height="25" viewBox="0 0 25 25" fill="none" xmlns="http://www.w3.org/2000/svg">
<g clip-path="url(#clip0)">
<path d="M23.3384 14.2889L22.7436 13.9563H22.9357C23.2725 13.9563 23.5455 13.6833 23.5455 13.3465C23.5455 13.3426 23.5454 8.47064 23.5454 8.47502C23.5449 8.25901 23.4294 8.05419 23.2341 7.94462L11.4036 0.0821237C11.2091 -0.0270282 11.4283 0.00410909 7.19044 0.00410909C6.85464 0.00410909 6.581 0.27615 6.58069 0.613362C6.58066 0.674303 6.58066 4.81643 6.58066 4.87509H4.62698C4.29037 4.87509 4.01719 5.14816 4.01719 5.48488V9.74611H1.95844C1.62077 9.74611 1.34895 10.0201 1.34865 10.3555C1.34861 10.3892 1.34865 15.203 1.34865 15.226C1.34865 15.4469 1.46805 15.6504 1.66086 15.7582L16.1599 25.0945C16.3538 25.2029 16.1289 25.1721 20.3723 25.1721C20.7091 25.1721 20.982 24.899 20.982 24.5623V20.3011H23.0408C23.3776 20.3011 23.6506 19.0727 23.6506 18.7359C23.6506 17.9588 23.6506 15.9718 23.6506 14.8212C23.6506 14.6019 23.5324 14.3974 23.3384 14.2889ZM10.9459 1.22368L20.603 7.86661H19.1804L9.52322 1.22368H10.9459ZM22.3259 9.08618V12.7367H20.5624L19.6308 12.2159V9.08618H22.3259ZM7.80023 1.6553L18.4112 8.83346V11.534C8.19777 4.59394 8.76876 4.87509 8.54177 4.87509H7.80023V1.6553ZM8.38288 6.09466L20.7007 14.2114H19.2849L6.96707 6.09466H8.38288ZM16.6164 19.0824C16.2266 18.8644 4.63711 11.155 4.29861 10.9657H5.71438L18.0322 19.0824H16.6164ZM5.23676 6.52449C5.80162 6.84032 18.0572 14.9222 18.5163 15.1789V17.9558L6.17084 9.82366C5.99515 9.72541 5.91096 9.74611 5.23676 9.74611V6.52449ZM2.56822 14.8683V11.3955L15.8477 20.0498V23.5227L2.56822 14.8683ZM19.7625 23.9525H17.0673V20.302H19.7625V23.9525ZM22.431 19.0815H20.5297L19.7358 18.6377V15.4309H22.4311L22.431 19.0815Z" fill="#4170B7"/>
</g>
<defs>
<clipPath id="clip0">
<rect width="25" height="25" fill="white"/>
</clipPath>
</defs>
</svg>
