<svg width="25" height="26" viewBox="0 0 25 26" fill="none" xmlns="http://www.w3.org/2000/svg">
<path d="M24.8396 19.5018C24.8396 19.495 24.8396 19.489 24.8389 19.4822C24.8381 19.4777 24.8381 19.4732 24.8374 19.4687C24.8366 19.4612 24.8351 19.4544 24.8344 19.4468C24.8336 19.4431 24.8336 19.4393 24.8321 19.4356C24.8306 19.425 24.8284 19.4137 24.8261 19.4032L21.2256 5.0055C21.1691 4.77651 20.9634 4.61569 20.7269 4.61569H4.27265C4.03687 4.61569 3.83127 4.77651 3.774 5.0055L0.174269 19.4031C0.17128 19.4137 0.169737 19.425 0.167471 19.4355C0.1667 19.4393 0.1667 19.443 0.165206 19.4476C0.164434 19.4544 0.163711 19.4611 0.162217 19.4687C0.162217 19.4732 0.161445 19.4777 0.160722 19.4822C0.160722 19.489 0.159951 19.495 0.159951 19.5018C0.15918 19.5063 0.15918 19.5116 0.15918 19.5161C0.15918 19.5199 0.15918 19.5236 0.15918 19.5274V22.0573C0.15918 22.2238 0.239782 22.3804 0.375341 22.4769C0.511671 22.5733 0.685699 22.5981 0.843096 22.5431L3.618 21.5737L6.4185 22.5431C6.52697 22.5816 6.64599 22.5808 6.75595 22.5431L9.54291 21.5737L12.3314 22.5431C12.4398 22.5816 12.5596 22.5816 12.6688 22.5431L15.4565 21.5737L18.2442 22.5431C18.3542 22.5816 18.4732 22.5816 18.5817 22.5431L21.3701 21.5737L24.1578 22.5431C24.2129 22.562 24.2701 22.5718 24.3266 22.5718C24.432 22.5718 24.5367 22.5394 24.6241 22.4769C24.7604 22.3804 24.841 22.2238 24.841 22.0573V19.5274C24.8411 19.5236 24.8411 19.5199 24.8411 19.5161C24.8404 19.5116 24.8404 19.5063 24.8396 19.5018ZM23.5968 18.7298L21.5389 18.0134C21.4297 17.9758 21.3107 17.9758 21.2014 18.0134L18.8446 18.8329L18.3332 14.7368L20.4347 14.01L22.6093 14.7783L23.5968 18.7298ZM21.4531 10.1534L22.3103 13.5822L20.6072 12.9807C20.498 12.9419 20.3774 12.9416 20.2675 12.9796L18.2021 13.694L17.7539 10.106L19.5158 9.48872L21.4531 10.1534ZM20.3262 5.64419L21.1563 8.96447L19.6815 8.45829C19.5716 8.42064 19.4533 8.42103 19.3441 8.4594L17.6236 9.06199L17.1958 5.64419H20.3262ZM13.0139 5.64424H16.1594L16.5797 9.00216L15.0055 8.45872C14.897 8.42107 14.778 8.42107 14.6695 8.45911L13.0139 9.03456V5.64424ZM13.0138 10.1234L14.8382 9.48877L16.7213 10.1396L17.1574 13.6248L15.315 12.9804C15.2058 12.9419 15.086 12.9419 14.9768 12.98L13.0138 13.6624V10.1234ZM13.0138 14.7511L15.1448 14.01L17.2997 14.7639L17.7999 18.7697L15.6261 18.0134C15.5161 17.9757 15.3971 17.9757 15.2879 18.0134L13.0138 18.8043V14.7511ZM8.84019 5.64424H11.9857V9.03456L10.3309 8.45911C10.2224 8.42107 10.1034 8.42107 9.99418 8.45872L8.42064 9.00216L8.84019 5.64424ZM11.9858 14.7512V18.8043L9.71173 18.0134C9.60326 17.9757 9.48424 17.9757 9.37428 18.0134L7.1997 18.7697L7.70062 14.7655L9.85486 14.0101L11.9858 14.7512ZM8.27829 10.1395L10.1614 9.48872L11.9857 10.1233V13.6624L10.0235 12.98C9.91353 12.9419 9.7945 12.9419 9.68454 12.9804L7.84216 13.6259L8.27829 10.1395ZM4.67412 5.64424H7.80379L7.37672 9.06204L5.6563 8.45945C5.54706 8.42103 5.42808 8.42064 5.31885 8.45834L3.84404 8.96451L4.67412 5.64424ZM3.54728 10.1535L5.48458 9.48877L7.24564 10.1061L6.79823 13.693L4.73135 12.9796C4.62139 12.9416 4.50236 12.942 4.3924 12.9808L2.69011 13.5822L3.54728 10.1535ZM2.39031 14.7782L4.56566 14.01L6.66715 14.7353L6.15495 18.8336L3.78605 18.0134C3.73105 17.9945 3.6746 17.9848 3.6181 17.9848C3.56083 17.9848 3.50283 17.9945 3.44788 18.0134L1.4036 18.7282L2.39031 14.7782ZM23.8121 21.3343L21.5389 20.5433C21.4297 20.5057 21.3107 20.5057 21.2015 20.5433L18.413 21.5127L15.6261 20.5433C15.5161 20.5057 15.3971 20.5057 15.2879 20.5433L12.5002 21.5127L9.71173 20.5433C9.60326 20.5057 9.48424 20.5057 9.37428 20.5433L6.58583 21.5135L3.78605 20.5433C3.73105 20.5245 3.6746 20.5147 3.6181 20.5147C3.56083 20.5147 3.50283 20.5245 3.44788 20.5433L1.18744 21.3335V19.8928L3.6181 19.0439L6.4186 20.0133C6.42462 20.0148 6.42916 20.017 6.43441 20.0186C6.4442 20.0216 6.45475 20.0246 6.46531 20.0269C6.47134 20.0284 6.47736 20.0299 6.48339 20.0306C6.49318 20.0329 6.50373 20.0352 6.51352 20.0367C6.51651 20.0367 6.51955 20.0374 6.52258 20.0381C6.52784 20.0389 6.53314 20.0389 6.53762 20.0396C6.54138 20.0396 6.54442 20.0396 6.54818 20.0404C6.561 20.0412 6.57378 20.0419 6.58732 20.0419C6.59561 20.0419 6.60391 20.0411 6.61292 20.0404C6.61895 20.0404 6.62497 20.0404 6.631 20.0396C6.64006 20.0389 6.64908 20.0374 6.65886 20.0367C6.66412 20.0359 6.66942 20.0352 6.67468 20.0344C6.68374 20.0329 6.69275 20.0306 6.70177 20.0284C6.70779 20.0269 6.71305 20.0261 6.71835 20.0246C6.72741 20.0223 6.73493 20.0193 6.74395 20.0171C6.74771 20.0156 6.75147 20.0148 6.756 20.0133L9.54296 19.0439L12.3314 20.0133C12.3314 20.0133 12.3359 20.0148 12.3382 20.0156C12.345 20.0179 12.3525 20.0201 12.36 20.0224C12.3683 20.0247 12.3766 20.0261 12.3841 20.0284C12.3917 20.0299 12.3985 20.0314 12.4053 20.0329C12.415 20.0344 12.4248 20.0359 12.4339 20.0375C12.4399 20.0382 12.4459 20.039 12.452 20.0397C12.4686 20.0412 12.4836 20.042 12.5002 20.042C12.516 20.042 12.5318 20.0412 12.5476 20.0397C12.5544 20.039 12.5597 20.0382 12.5657 20.0375C12.5755 20.036 12.5845 20.0345 12.5943 20.0329C12.6011 20.0314 12.6086 20.03 12.6162 20.0284C12.6237 20.0261 12.6312 20.0247 12.6395 20.0224C12.647 20.0201 12.6545 20.0179 12.6621 20.0156C12.6644 20.0148 12.6666 20.0141 12.6689 20.0133L15.4566 19.0439L18.2443 20.0133C18.2488 20.0148 18.2518 20.0156 18.2564 20.0171C18.2647 20.0193 18.2729 20.0223 18.282 20.0246C18.2872 20.0261 18.2925 20.0269 18.2985 20.0284C18.3076 20.0306 18.3166 20.0329 18.3256 20.0344C18.3309 20.0352 18.3362 20.0359 18.3422 20.0367C18.3513 20.0381 18.3603 20.0389 18.3693 20.0396C18.3768 20.0404 18.3859 20.0404 18.3934 20.0411C18.3994 20.0411 18.4062 20.0419 18.413 20.0419C18.4258 20.0419 18.4386 20.0411 18.4521 20.0404C18.4551 20.0396 18.4597 20.0396 18.4634 20.0389C18.4679 20.0389 18.4725 20.0381 18.477 20.0381C18.4799 20.0374 18.4822 20.0367 18.4853 20.0367C18.4958 20.0352 18.5071 20.0329 18.5176 20.0306C18.5229 20.0299 18.5289 20.0284 18.535 20.0269C18.5447 20.0246 18.5553 20.0216 18.5651 20.0186C18.5711 20.0171 18.5756 20.0156 18.5817 20.0133L21.3701 19.0439L23.8121 19.8936V21.3343Z" fill="#4170B7" stroke="#4170B7" stroke-width="0.2"/>
</svg>
