<svg width="25" height="25" viewBox="0 0 25 25" fill="none" xmlns="http://www.w3.org/2000/svg">
<g clip-path="url(#clip0)">
<path d="M24.7469 13.0947L17.6188 8.81765L18.5084 8.25203C18.6584 8.15618 18.749 7.99055 18.749 7.81243C18.749 7.6343 18.6584 7.46868 18.5084 7.37283L12.7792 3.72708C12.6084 3.61873 12.3907 3.61873 12.2198 3.72708L6.49068 7.37292C6.34064 7.46873 6.25001 7.63435 6.25001 7.81248C6.25001 7.9906 6.34064 8.15623 6.49064 8.25207L7.38024 8.81873L0.253133 13.0947C0.0968833 13.1885 8.23662e-06 13.3573 8.23662e-06 13.5395C-0.00101715 13.7218 0.0937583 13.8916 0.250008 13.9864L12.2292 21.278C12.3125 21.3291 12.4063 21.3541 12.5 21.3541C12.5938 21.3541 12.6875 21.3291 12.7709 21.278L24.75 13.9864C24.9063 13.8906 25 13.7218 25 13.5396C24.999 13.3572 24.9031 13.1885 24.7469 13.0947ZM12.5 4.78435L17.2594 7.81248L12.5 10.8406L7.74064 7.81248L12.5 4.78435ZM8.36251 9.44373L12.2198 11.8979C12.3052 11.952 12.4031 11.9791 12.5 11.9791C12.5969 11.9791 12.6948 11.952 12.7792 11.8979L16.6364 9.44265L17.3229 9.85515L12.5 12.925L7.67604 9.8552L8.36251 9.44373ZM1.52813 13.5427L6.67814 10.4542L11.5302 13.5417L6.63858 16.6542L1.52813 13.5427ZM12.5 20.2229L7.63024 17.2583L12.5 14.1593L17.3698 17.2583L12.5 20.2229ZM18.3615 16.6552L13.4698 13.5417L18.3219 10.4542L23.4719 13.5438L18.3615 16.6552Z" fill="#4170B7" stroke="#4170B7" stroke-width="0.2"/>
</g>
<defs>
<clipPath id="clip0">
<rect width="25" height="25" fill="white"/>
</clipPath>
</defs>
</svg>
