<svg width="25" height="26" viewBox="0 0 25 26" fill="none" xmlns="http://www.w3.org/2000/svg">
<path d="M21.911 2.81964H21.1786V6.25726H6.17771V5.90859C6.17771 4.20533 4.79202 2.81964 3.08895 2.81964C1.38569 2.81964 0 4.20533 0 5.90859V20.0916C0 21.7947 1.38569 23.1804 3.08895 23.1804H21.911C23.6143 23.1804 25 21.7949 25 20.0916V5.90859C25 4.20533 23.6143 2.81964 21.911 2.81964V2.81964ZM3.08895 4.28448C3.98445 4.28448 4.71287 5.01309 4.71287 5.90859V17.4656C4.24061 17.1726 3.68443 17.0027 3.08895 17.0027C2.49329 17.0027 1.9371 17.1726 1.46484 17.4656V5.90859C1.46484 5.01309 2.19345 4.28448 3.08895 4.28448ZM1.46484 20.0916C1.46484 19.1961 2.19345 18.4675 3.08895 18.4675C3.98445 18.4675 4.71287 19.1961 4.71287 20.0916C4.71287 20.9871 3.98445 21.7156 3.08895 21.7156C2.19345 21.7156 1.46484 20.9871 1.46484 20.0916ZM21.911 21.7156H5.7148C6.00796 21.2435 6.17771 20.6871 6.17771 20.0916V7.7221H21.1786V18.4675H21.911C22.8065 18.4675 23.5352 19.1961 23.5352 20.0916C23.5352 20.9871 22.8065 21.7156 21.911 21.7156ZM23.5352 17.465C23.2632 17.2962 22.963 17.1684 22.6435 17.0904V4.4592C23.1722 4.72737 23.5352 5.27631 23.5352 5.90859V17.465Z" fill="#4170B7"/>
</svg>
