<svg width="25" height="26" viewBox="0 0 25 26" fill="none" xmlns="http://www.w3.org/2000/svg">
<g clip-path="url(#clip0)">
<path d="M22.2695 13.25C22.2695 7.07993 21.2406 3.48082 21.2406 3.48082H21.2241L22.2695 0.909851H12.5H2.73047L3.77592 3.48082H3.75934C3.75934 3.48082 2.73047 7.07993 2.73047 13.25C2.73047 19.42 3.75934 23.0188 3.75934 23.0188H3.77592L2.73047 25.5902H12.5H22.2695L21.2241 23.0188H21.2406C21.2406 23.0188 22.2695 19.42 22.2695 13.25ZM6.84435 1.93833C6.84435 2.2223 7.07409 2.45238 7.35801 2.45238C7.64193 2.45238 7.87245 2.2223 7.87245 1.93833H8.90054C8.90054 2.2223 9.13101 2.45238 9.41498 2.45238C9.69895 2.45238 9.92941 2.2223 9.92941 1.93833H10.9575C10.9575 2.2223 11.1879 2.45238 11.4719 2.45238C11.7559 2.45238 11.9856 2.2223 11.9856 1.93833H12.5H13.0144C13.0144 2.2223 13.2442 2.45238 13.5281 2.45238C13.812 2.45238 14.0425 2.2223 14.0425 1.93833H15.0706C15.0706 2.2223 15.3011 2.45238 15.5851 2.45238C15.869 2.45238 16.0995 2.2223 16.0995 1.93833H17.1275C17.1275 2.2223 17.358 2.45238 17.642 2.45238C17.9259 2.45238 18.1556 2.2223 18.1556 1.93833H20.7413L20.1139 3.48082H12.5H4.88606L4.25868 1.93833H6.84435ZM4.25343 6.25896C4.36642 5.51594 4.4809 4.92732 4.57052 4.50891H12.5H20.4295C20.5191 4.92771 20.6336 5.51594 20.7466 6.25896C20.8588 6.99673 20.9823 7.96645 21.0772 9.13646H17.1373C16.0008 7.85606 14.343 7.04792 12.5 7.04792C10.657 7.04792 8.99922 7.85611 7.86266 9.13646H3.92275C4.01766 7.96645 4.14121 6.99668 4.25343 6.25896ZM17.6736 13.25C17.6736 16.103 15.353 18.4243 12.5 18.4243C9.64693 18.4243 7.32639 16.103 7.32639 13.25C7.32639 10.3969 9.64698 8.07602 12.5 8.07602C15.3531 8.07602 17.6736 10.3969 17.6736 13.25ZM3.75934 13.25C3.75934 12.1278 3.79472 11.0959 3.85049 10.1649H7.1208C6.59735 11.074 6.29757 12.1278 6.29757 13.25C6.29757 14.3722 6.59735 15.4259 7.1208 16.335H3.85044C3.79472 15.404 3.75934 14.3722 3.75934 13.25ZM18.1556 24.5613C18.1556 24.2781 17.9259 24.0476 17.642 24.0476C17.358 24.0476 17.1275 24.2781 17.1275 24.5613H16.0995C16.0995 24.2781 15.869 24.0476 15.5851 24.0476C15.3011 24.0476 15.0706 24.2781 15.0706 24.5613H14.0425C14.0425 24.2781 13.8121 24.0476 13.5281 24.0476C13.2441 24.0476 13.0144 24.2781 13.0144 24.5613H12.5H11.9856C11.9856 24.2781 11.7558 24.0476 11.4719 24.0476C11.188 24.0476 10.9575 24.2781 10.9575 24.5613H9.92941C9.92941 24.2781 9.69895 24.0476 9.41498 24.0476C9.13101 24.0476 8.90054 24.2781 8.90054 24.5613H7.87245C7.87245 24.2781 7.64198 24.0476 7.35801 24.0476C7.07404 24.0476 6.84435 24.2781 6.84435 24.5613H4.25868L4.88606 23.0188H12.5H20.1139L20.7413 24.5613H18.1556ZM20.7466 20.241C20.6336 20.9836 20.5191 21.5726 20.4295 21.9914H12.5H4.57052C4.4809 21.5726 4.36642 20.9836 4.25343 20.241C4.14121 19.5029 4.01766 18.5335 3.9228 17.3638H7.86266C8.99922 18.6442 10.657 19.4516 12.5 19.4516C14.343 19.4516 16.0008 18.6442 17.1373 17.3638H21.0772C20.9823 18.5335 20.8588 19.5029 20.7466 20.241ZM21.1495 16.335H17.8792C18.4026 15.4259 18.7024 14.3722 18.7024 13.25C18.7024 12.1278 18.4026 11.074 17.8792 10.1649H21.1495C21.2053 11.0959 21.2406 12.1278 21.2406 13.25C21.2406 14.3722 21.2053 15.404 21.1495 16.335Z" fill="#4170B7" stroke="#4170B7" stroke-width="0.2"/>
<path d="M15.5691 11.7074H9.43065C9.14668 11.7074 8.91699 11.9375 8.91699 12.2214C8.91699 12.5054 9.14668 12.7359 9.43065 12.7359H15.5691C15.8531 12.7359 16.0828 12.5054 16.0828 12.2214C16.0828 11.9375 15.853 11.7074 15.5691 11.7074Z" fill="#4170B7" stroke="#4170B7" stroke-width="0.2"/>
<path d="M14.034 13.764H10.9656C10.6816 13.764 10.4512 13.9945 10.4512 14.2789C10.4512 14.5621 10.6816 14.7925 10.9656 14.7925H14.034C14.318 14.7925 14.5485 14.5621 14.5485 14.2789C14.5485 13.9945 14.318 13.764 14.034 13.764Z" fill="#4170B7" stroke="#4170B7" stroke-width="0.2"/>
</g>
<defs>
<clipPath id="clip0">
<rect width="25" height="25" fill="white" transform="translate(0 0.75)"/>
</clipPath>
</defs>
</svg>
