<svg width="25" height="26" viewBox="0 0 25 26" fill="none" xmlns="http://www.w3.org/2000/svg">
<g clip-path="url(#clip0)">
<path d="M20.8092 0.75H4.18996C4.04585 0.750082 3.90766 0.807368 3.80576 0.909272C3.70385 1.01118 3.64657 1.14936 3.64648 1.29348V25.2065C3.64657 25.3506 3.70385 25.4888 3.80576 25.5907C3.90766 25.6926 4.04585 25.7499 4.18996 25.75H20.8092C20.9533 25.7499 21.0915 25.6926 21.1934 25.5907C21.2953 25.4888 21.3526 25.3506 21.3527 25.2065V1.29348C21.3526 1.14936 21.2953 1.01118 21.1934 0.909272C21.0915 0.807368 20.9533 0.750082 20.8092 0.75ZM4.73344 1.83696H7.27412C6.58748 3.17888 5.90456 6.03634 8.12164 10.9876C11.1005 17.6407 10.016 22.1286 10.0064 22.172C9.98858 22.2412 9.98452 22.3131 9.99448 22.3838C10.0044 22.4545 10.0282 22.5225 10.0645 22.584C10.1007 22.6454 10.1487 22.6992 10.2058 22.7421C10.2628 22.785 10.3277 22.8163 10.3968 22.8342C10.5364 22.8702 10.6845 22.8493 10.8087 22.7761C10.8702 22.7399 10.9239 22.6918 10.9669 22.6348C11.0098 22.5778 11.0411 22.5129 11.0589 22.4438C11.1092 22.2484 12.2608 17.5721 9.11356 10.5435C6.62568 4.98696 8.09524 2.43944 8.55549 1.83696H11.3136C10.7002 2.23834 10.1965 2.78614 9.8478 3.43091C9.49912 4.07567 9.31648 4.79712 9.31636 5.53012C9.31445 5.67427 9.36983 5.81329 9.47033 5.91664C9.57083 6.01999 9.70824 6.07924 9.85239 6.08137H9.85984C10.0027 6.0813 10.1397 6.02504 10.2414 5.92474C10.3431 5.82444 10.4013 5.68816 10.4033 5.54534C10.4462 2.45808 13.8636 1.89068 14.2437 1.83696H18.0033V7.91242C17.7895 7.6549 17.5394 7.42987 17.2608 7.24441C16.3825 6.70633 15.3273 6.5369 14.3247 6.77298C14.1855 6.81025 14.0668 6.90131 13.9947 7.02612C13.9226 7.15093 13.903 7.29927 13.9403 7.43851C13.9775 7.57775 14.0686 7.69648 14.1934 7.76858C14.3182 7.84068 14.4666 7.86025 14.6058 7.82298C15.3128 7.66718 16.0526 7.7875 16.6738 8.15932C17.3707 8.62174 17.8173 9.48012 18.0033 10.7087V24.663H14.749C15.4853 22.6168 17.0241 16.8888 13.5164 11.8028C11.94 9.51708 12.3561 7.86988 12.7446 7.0913C13.2334 6.11118 14.021 5.67981 14.3337 5.66677C14.4779 5.6608 14.6138 5.59781 14.7115 5.49167C14.8092 5.38552 14.8607 5.24492 14.8547 5.10078C14.8487 4.95664 14.7858 4.82077 14.6796 4.72307C14.5735 4.62537 14.4329 4.57384 14.2887 4.57981C13.5241 4.61087 12.4142 5.31739 11.7732 6.60528C11.2778 7.59907 10.7297 9.6736 12.6229 12.4189C16.0533 17.3932 14.1306 23.2522 13.5856 24.6621H8.2971C9.16816 21.7988 8.93368 18.7128 7.63996 16.014C5.65704 11.9742 4.73344 8.95807 4.73344 6.52236V1.83696ZM4.73344 11.9755C5.28738 13.5176 5.93209 15.0256 6.66419 16.4916C8.4381 20.1059 7.51015 23.6003 7.15207 24.663H4.73344V11.9755ZM20.2657 24.663H19.0903V1.83696H20.2657V24.663Z" fill="#4170B7"/>
<path d="M16.4381 12.3397C16.461 12.3427 16.4842 12.3442 16.5073 12.3441C16.6458 12.3445 16.7792 12.292 16.8803 12.1974C16.9813 12.1027 17.0424 11.973 17.0511 11.8348C17.0597 11.6966 17.0152 11.5604 16.9268 11.4539C16.8383 11.3473 16.7125 11.2786 16.575 11.2618C15.0809 11.072 15.0126 9.91273 15.0098 9.77764C15.0092 9.6335 14.9514 9.49549 14.8491 9.39398C14.7468 9.29246 14.6083 9.23576 14.4642 9.23633C14.32 9.23691 14.182 9.29472 14.0805 9.39705C13.979 9.49938 13.9223 9.63785 13.9229 9.78198C13.9229 10.5565 14.4486 12.0876 16.4381 12.3397Z" fill="#4170B7"/>
</g>
<defs>
<clipPath id="clip0">
<rect width="25" height="25" fill="white" transform="translate(0 0.75)"/>
</clipPath>
</defs>
</svg>
