<svg width="25" height="50" fill="none" xmlns="http://www.w3.org/2000/svg"><path d="M13.65 15.962c-2.45 0-4.55.77-6.16 1.96V6.302h15.68V.212H.7v26.88h6.65c.7-3.15 2.52-4.69 5.39-4.69 3.5 0 5.11 2.1 5.11 7.42v5.11c0 6.37-1.89 8.47-5.25 8.47-3.43 0-5.25-1.96-5.46-6.65H.28c.28 8.33 4.9 13.23 12.32 13.23 7.49 0 12.11-5.04 12.11-15.12v-4.97c0-8.96-4.48-13.93-11.06-13.93z" fill="url(#paint0_linear)"/><defs><linearGradient id="paint0_linear" x1="11.5" y1="6.212" x2="11.5" y2="49" gradientUnits="userSpaceOnUse"><stop stop-color="#4170B7"/><stop offset="1" stop-color="#4170B7" stop-opacity="0"/></linearGradient></defs></svg>