<svg width="92" height="20" fill="none" xmlns="http://www.w3.org/2000/svg"><path d="M7.289 9.847a.929.929 0 011.422 0l4.936 5.877a.929.929 0 01-.711 1.526H3.064a.929.929 0 01-.71-1.526l4.935-5.877z" fill="#8D8D8D"/><path d="M7.318 5.738a.929.929 0 011.364 0l4.806 5.203a.929.929 0 01-.682 1.559H3.194a.929.929 0 01-.682-1.559l4.806-5.203z" fill="#B8B8B8"/><path d="M7.289.847a.929.929 0 011.422 0l4.936 5.877a.929.929 0 01-.711 1.526H3.064a.929.929 0 01-.71-1.526L7.288.847z" fill="#EAEAEA"/><path d="M28.122 5.508V7.34H24.29v1.978h2.866v1.778H24.29v3.797H22V5.508h6.122zM32.29 15c-.732 0-1.393-.156-1.983-.468a3.487 3.487 0 01-1.38-1.337c-.33-.58-.495-1.257-.495-2.032 0-.766.17-1.44.509-2.019a3.438 3.438 0 011.393-1.35c.59-.312 1.25-.468 1.983-.468.732 0 1.393.156 1.982.468.59.312 1.054.762 1.393 1.35.34.58.51 1.253.51 2.02 0 .766-.175 1.443-.523 2.031a3.442 3.442 0 01-1.407 1.337c-.589.312-1.25.468-1.982.468zm0-1.979c.437 0 .808-.16 1.112-.48.312-.322.468-.78.468-1.378 0-.597-.151-1.056-.455-1.377a1.43 1.43 0 00-1.098-.481c-.447 0-.817.16-1.112.481-.295.312-.442.771-.442 1.377 0 .597.143 1.056.428 1.377.295.321.661.481 1.099.481zm7.417-4.345c.268-.41.603-.73 1.005-.962.402-.24.848-.361 1.34-.361v2.42h-.63c-.572 0-1 .125-1.286.374-.286.24-.429.668-.429 1.284v3.462h-2.29v-7.46h2.29v1.243zm10.485 2.367c0 .214-.013.437-.04.668h-5.184c.036.464.183.82.442 1.07.268.24.594.36.978.36.572 0 .969-.24 1.192-.721h2.438c-.125.49-.353.931-.683 1.323-.322.393-.728.7-1.219.923a3.944 3.944 0 01-1.648.334c-.732 0-1.384-.156-1.955-.468a3.332 3.332 0 01-1.34-1.337c-.321-.58-.482-1.257-.482-2.032 0-.775.156-1.453.469-2.032a3.332 3.332 0 011.34-1.337c.57-.312 1.227-.468 1.968-.468.724 0 1.367.152 1.93.455.562.303 1 .735 1.312 1.297.322.561.482 1.216.482 1.965zm-2.344-.602c0-.392-.134-.704-.402-.936-.268-.231-.603-.347-1.004-.347-.384 0-.71.111-.978.334-.26.223-.42.54-.483.95h2.867zM54.441 15c-.651 0-1.232-.111-1.74-.334-.51-.223-.912-.526-1.206-.91a2.44 2.44 0 01-.496-1.31h2.264a.869.869 0 00.361.629c.215.16.478.24.79.24.286 0 .505-.053.657-.16a.524.524 0 00.241-.441c0-.214-.111-.37-.335-.468-.223-.107-.585-.223-1.085-.348a11.055 11.055 0 01-1.34-.387 2.405 2.405 0 01-.923-.655c-.26-.303-.389-.709-.389-1.217 0-.428.116-.815.348-1.163.241-.357.59-.637 1.045-.842.464-.205 1.014-.308 1.648-.308.938 0 1.674.232 2.21.695.545.464.857 1.079.938 1.845h-2.117a.9.9 0 00-.348-.615c-.188-.151-.438-.227-.75-.227-.268 0-.474.054-.616.16a.474.474 0 00-.215.415c0 .214.112.374.335.481.232.107.59.214 1.072.321.553.143 1.005.285 1.353.428.348.134.652.356.91.668.269.303.407.713.416 1.23 0 .437-.125.83-.375 1.177-.241.338-.594.606-1.058.802-.456.196-.987.294-1.595.294zm8.595-2.046v1.939h-1.165c-.83 0-1.478-.2-1.942-.602-.465-.41-.697-1.074-.697-1.992V9.332h-.91V7.433h.91V5.615h2.29v1.818h1.5v1.899h-1.5v2.994c0 .223.054.383.161.481.108.098.286.147.536.147h.817zm12.915-5.36l-2.29 7.299h-.938L70.7 8.77l-2.022 6.123h-.951l-2.291-7.3h.95l1.823 6.35 2.05-6.35h.937l2.023 6.364 1.808-6.363h.924zm7.458 3.275c0 .32-.01.566-.027.735h-6.068c.027.553.16 1.025.402 1.417.24.393.558.691.95.896.394.196.822.294 1.287.294.607 0 1.116-.147 1.527-.44.42-.295.696-.692.83-1.19h.992a3.11 3.11 0 01-1.152 1.75c-.58.446-1.313.669-2.197.669-.688 0-1.304-.152-1.849-.454a3.363 3.363 0 01-1.286-1.31c-.303-.571-.455-1.235-.455-1.993 0-.757.151-1.421.455-1.992a3.162 3.162 0 011.273-1.31c.544-.303 1.165-.454 1.862-.454.696 0 1.304.151 1.822.454.526.303.928.713 1.205 1.23a3.4 3.4 0 01.429 1.698zm-.951-.027c.009-.543-.103-1.007-.335-1.39a2.172 2.172 0 00-.925-.87 2.84 2.84 0 00-1.285-.293c-.697 0-1.29.223-1.782.668-.491.446-.764 1.074-.817 1.885h5.144zm3.152-1.631a2.977 2.977 0 011.112-1.243c.51-.32 1.108-.481 1.795-.481.67 0 1.268.156 1.795.468.527.303.938.74 1.233 1.31.303.561.455 1.216.455 1.965 0 .749-.152 1.408-.456 1.979a3.188 3.188 0 01-1.245 1.323 3.43 3.43 0 01-1.782.468c-.696 0-1.3-.156-1.808-.468-.5-.32-.867-.735-1.099-1.243v1.604h-.924V5h.924v4.211zm5.439 2.019c0-.606-.12-1.128-.362-1.564a2.414 2.414 0 00-.964-1.016 2.786 2.786 0 00-1.393-.348c-.5 0-.96.12-1.38.361-.41.24-.737.584-.978 1.03-.241.445-.362.962-.362 1.55 0 .589.12 1.105.362 1.551.241.446.567.789.978 1.03.42.24.88.36 1.38.36.518 0 .982-.115 1.393-.347a2.5 2.5 0 00.964-1.03c.241-.454.362-.98.362-1.577z" fill="#fff"/></svg>