<svg width="118" height="26" fill="none" xmlns="http://www.w3.org/2000/svg"><path d="M9.528 12.996a.929.929 0 011.412 0l6.848 8.015a.929.929 0 01-.706 1.532H3.386a.929.929 0 01-.706-1.532l6.848-8.015z" fill="#1D634A"/><path d="M9.528 6.911a.929.929 0 011.412 0l6.848 8.014a.929.929 0 01-.706 1.532H3.386a.929.929 0 01-.706-1.532l6.848-8.014z" fill="#278362"/><path d="M9.528.826a.929.929 0 011.412 0l6.848 8.015a.929.929 0 01-.706 1.531H3.386a.929.929 0 01-.706-1.531L9.528.826z" fill="#3EA47F"/><path d="M35.87 6.643v2.36h-4.925v2.549h3.686v2.29h-3.686v4.892H28V6.644h7.87zm5.36 12.229c-.942 0-1.791-.201-2.55-.603a4.487 4.487 0 01-1.773-1.722c-.425-.747-.637-1.62-.637-2.618 0-.988.218-1.855.654-2.6a4.425 4.425 0 011.791-1.74c.758-.402 1.608-.603 2.55-.603.94 0 1.79.2 2.548.603a4.425 4.425 0 011.791 1.74c.437.745.655 1.612.655 2.6 0 .987-.224 1.86-.672 2.618a4.43 4.43 0 01-1.808 1.722c-.758.402-1.608.603-2.55.603zm0-2.55c.562 0 1.039-.206 1.43-.62.401-.413.602-1.004.602-1.773 0-.77-.195-1.36-.586-1.774a1.838 1.838 0 00-1.412-.62c-.574 0-1.05.206-1.43.62-.378.402-.568.993-.568 1.774 0 .769.184 1.36.552 1.774.378.413.85.62 1.412.62zm9.536-5.597a3.802 3.802 0 011.292-1.24 3.283 3.283 0 011.722-.465v3.118h-.81c-.734 0-1.285.16-1.652.482-.368.31-.552.86-.552 1.653v4.46h-2.945v-9.61h2.945v1.602zm13.481 3.049c0 .275-.017.562-.051.86H57.53c.046.598.236 1.057.569 1.379.344.31.763.465 1.257.465.735 0 1.246-.31 1.533-.93h3.134c-.16.631-.453 1.2-.878 1.705a4.275 4.275 0 01-1.567 1.188c-.632.287-1.338.43-2.119.43-.941 0-1.78-.2-2.514-.602a4.289 4.289 0 01-1.723-1.722c-.413-.747-.62-1.62-.62-2.618 0-1 .201-1.872.603-2.618a4.287 4.287 0 011.723-1.722c.734-.402 1.578-.603 2.531-.603.93 0 1.757.195 2.48.585.724.39 1.286.948 1.688 1.671.414.723.62 1.567.62 2.532zm-3.014-.775c0-.506-.172-.907-.516-1.206-.345-.298-.775-.448-1.292-.448-.494 0-.913.144-1.257.43-.333.288-.54.695-.62 1.224h3.685zm8.477 5.873c-.838 0-1.584-.144-2.238-.43-.655-.288-1.172-.678-1.55-1.172a3.148 3.148 0 01-.638-1.688h2.91c.035.333.19.603.466.81.276.206.614.31 1.016.31.367 0 .649-.07.844-.207.207-.15.31-.339.31-.568 0-.276-.144-.477-.43-.603-.288-.138-.753-.287-1.396-.448a14.19 14.19 0 01-1.722-.5 3.092 3.092 0 01-1.188-.843c-.333-.39-.5-.913-.5-1.568 0-.55.15-1.05.448-1.498.31-.46.758-.821 1.343-1.085.597-.264 1.304-.396 2.119-.396 1.206 0 2.153.298 2.842.895.7.597 1.102 1.39 1.205 2.377H70.83a1.16 1.16 0 00-.448-.792c-.24-.195-.562-.293-.964-.293-.345 0-.609.069-.793.207a.61.61 0 00-.275.534c0 .275.144.482.43.62.299.137.758.275 1.378.413.712.184 1.292.368 1.74.551.448.172.838.46 1.171.861.344.39.522.919.534 1.585a2.53 2.53 0 01-.482 1.515c-.31.437-.764.781-1.36 1.034-.587.252-1.27.379-2.05.379zm11.051-2.635v2.497h-1.498c-1.068 0-1.9-.258-2.498-.775-.597-.528-.895-1.384-.895-2.566v-3.824h-1.171V9.124h1.17V6.78h2.946v2.343h1.929v2.445h-1.93v3.858c0 .287.07.494.208.62.137.126.367.19.688.19h1.051zM97.366 9.33l-2.945 9.404h-1.206l-2.6-7.888-2.601 7.888h-1.223L83.846 9.33h1.223l2.342 8.181 2.635-8.18h1.206l2.6 8.197 2.326-8.198h1.188zm9.588 4.22c0 .413-.011.729-.034.947h-7.802c.034.712.206 1.32.516 1.826.31.505.718.89 1.223 1.154a3.647 3.647 0 001.654.378c.78 0 1.435-.189 1.963-.568.54-.379.896-.89 1.068-1.533h1.274a4.002 4.002 0 01-1.481 2.257c-.746.574-1.688.86-2.824.86-.884 0-1.677-.194-2.377-.585a4.329 4.329 0 01-1.653-1.688c-.39-.735-.586-1.59-.586-2.566 0-.976.195-1.831.586-2.566a4.069 4.069 0 011.636-1.688c.7-.39 1.498-.586 2.394-.586.895 0 1.676.196 2.342.586.677.39 1.194.919 1.55 1.585.367.654.551 1.383.551 2.187zm-1.223-.035c.012-.7-.132-1.297-.43-1.79a2.79 2.79 0 00-1.189-1.12 3.643 3.643 0 00-1.653-.38c-.896 0-1.659.288-2.291.862-.631.574-.981 1.383-1.05 2.428h6.613zm4.054-2.101a3.83 3.83 0 011.429-1.602c.655-.413 1.424-.62 2.308-.62.861 0 1.63.201 2.308.603a4.02 4.02 0 011.584 1.688c.391.723.586 1.567.586 2.532 0 .964-.195 1.814-.586 2.549a4.096 4.096 0 01-1.601 1.705c-.678.402-1.441.603-2.291.603-.896 0-1.671-.201-2.325-.603-.643-.413-1.114-.947-1.412-1.602v2.067h-1.189V5.989h1.189v5.425zm6.992 2.6c0-.78-.155-1.452-.465-2.014a3.106 3.106 0 00-1.24-1.31c-.528-.298-1.125-.447-1.791-.447a3.5 3.5 0 00-1.774.465c-.528.31-.947.752-1.257 1.326-.31.574-.465 1.24-.465 1.998s.155 1.424.465 1.998c.31.574.729 1.016 1.257 1.326a3.5 3.5 0 001.774.465c.666 0 1.263-.15 1.791-.448.528-.31.942-.752 1.24-1.326.31-.585.465-1.263.465-2.032z" fill="#fff"/></svg>