<svg width="65" height="66" fill="none" xmlns="http://www.w3.org/2000/svg"><circle cx="32" cy="32" r="32" fill="#EAEDF1"/><path d="M39.667 50.8H4.333C2.467 50.8 1 49.2 1 47.334V13.867a3.3 3.3 0 013.333-3.333h32a3.301 3.301 0 013.334 3.333V50.8z" fill="#2E4363"/><path d="M64.067 29.2l-8.533-8.534c-.534-.533-1.334-.933-2.134-.933H39.667V50.8h21.867C63.4 50.8 65 49.2 65 47.333v-16c0-.933-.266-1.6-.933-2.133z" fill="#4170B7"/><path d="M1 44.933v2.4a3.3 3.3 0 003.333 3.333h57.2c1.867 0 3.467-1.6 3.467-3.466v-2.4H1v.133z" fill="#202D42"/><path d="M60.467 36v-4.134l-7.6-7.733H44.2V36h16.267z" fill="#34568A"/><path d="M17.267 57.466a8.267 8.267 0 100-16.533 8.267 8.267 0 000 16.533z" fill="#273A57"/><path d="M17.267 53.2a4 4 0 100-8 4 4 0 000 8z" fill="#fff"/><path d="M50.866 57.467a8.267 8.267 0 100-16.533 8.267 8.267 0 000 16.533z" fill="#273A57"/><path d="M50.866 53.2a4 4 0 100-8 4 4 0 000 8zM15.016 33H7.078v-1.719l3.656-3.843c.901-1.026 1.352-1.842 1.352-2.446 0-.49-.107-.862-.32-1.117-.214-.255-.524-.383-.93-.383-.401 0-.727.172-.977.516-.25.338-.375.763-.375 1.273h-2.64c0-.698.174-1.34.523-1.93a3.663 3.663 0 011.453-1.39c.62-.333 1.313-.5 2.078-.5 1.23 0 2.175.284 2.836.852.667.567 1 1.382 1 2.445 0 .448-.083.885-.25 1.312-.166.422-.427.867-.78 1.336-.35.464-.915 1.086-1.696 1.867l-1.469 1.696h4.477V33zm9.382-4.648c0 1.536-.346 2.72-1.039 3.554-.687.834-1.659 1.25-2.914 1.25-1.265 0-2.244-.419-2.937-1.258-.693-.838-1.04-2.02-1.04-3.546v-2.079c0-1.536.345-2.72 1.032-3.554.693-.834 1.67-1.25 2.93-1.25 1.26 0 2.237.419 2.93 1.258.692.838 1.038 2.023 1.038 3.554v2.07zm-2.632-2.415c0-.817-.107-1.427-.32-1.828-.214-.406-.553-.609-1.016-.609-.453 0-.784.188-.992.563-.204.375-.313.942-.329 1.703v2.906c0 .849.107 1.471.32 1.867.214.39.553.586 1.016.586.448 0 .779-.19.992-.57.214-.386.323-.987.329-1.805v-2.813zm11.601.626h-2.664V33h-2.648v-6.438H25.43v-2.015h7.937v2.015z" fill="#fff"/></svg>