<svg width="66" height="66" fill="none" xmlns="http://www.w3.org/2000/svg"><circle cx="32" cy="32" r="32" fill="#EAEDF1"/><path d="M40.667 50.8H5.333C3.467 50.8 2 49.2 2 47.334V13.867a3.3 3.3 0 013.333-3.333h32a3.301 3.301 0 013.334 3.333V50.8z" fill="#2E4363"/><path d="M65.067 29.2l-8.533-8.534c-.534-.533-1.334-.933-2.134-.933H40.667V50.8h21.867C64.4 50.8 66 49.2 66 47.333v-16c0-.933-.266-1.6-.933-2.133z" fill="#4170B7"/><path d="M2 44.933v2.4a3.3 3.3 0 003.333 3.333h57.2c1.867 0 3.467-1.6 3.467-3.466v-2.4H2v.133z" fill="#202D42"/><path d="M61.467 36v-4.134l-7.6-7.733H45.2V36h16.267z" fill="#34568A"/><path d="M18.267 57.466a8.267 8.267 0 100-16.533 8.267 8.267 0 000 16.533z" fill="#273A57"/><path d="M18.267 53.2a4 4 0 100-8 4 4 0 000 8z" fill="#fff"/><path d="M51.866 57.467a8.267 8.267 0 100-16.533 8.267 8.267 0 000 16.533z" fill="#273A57"/><path d="M51.866 53.2a4 4 0 100-8 4 4 0 000 8zM14.024 27.438l.695-5.813h6.648v2.047H16.86l-.257 2.258a3.11 3.11 0 01.734-.29c.307-.083.607-.124.899-.124 1.13 0 1.997.336 2.601 1.007.61.667.914 1.605.914 2.813 0 .73-.164 1.39-.492 1.984a3.337 3.337 0 01-1.367 1.36c-.589.317-1.284.476-2.086.476a4.69 4.69 0 01-2.008-.437c-.625-.297-1.115-.7-1.469-1.211a2.962 2.962 0 01-.523-1.742h2.64c.026.416.16.747.399.992.24.245.555.367.945.367.886 0 1.328-.656 1.328-1.969 0-1.213-.541-1.82-1.625-1.82-.614 0-1.073.198-1.375.594l-2.093-.492zm16.554-.875h-2.664V33h-2.648v-6.438H22.64v-2.015h7.937v2.015z" fill="#fff"/></svg>