<svg width="26" height="51" fill="none" xmlns="http://www.w3.org/2000/svg"><path d="M13.838 18.082c-2.66 0-5.04.91-6.65 2.45v-7.49c0-3.92 2.31-6.02 5.6-6.02 3.08 0 5.18 2.17 5.46 5.95h6.86c-.42-7.63-5.32-12.53-12.32-12.53-7.28 0-12.46 4.97-12.46 12.74v24.92c0 7.84 5.32 12.88 12.53 12.88 7.21 0 12.53-5.04 12.53-12.88v-7.77c0-7.28-5.11-12.25-11.55-12.25zm4.69 19.95c0 4.13-2.38 6.37-5.67 6.37s-5.67-2.24-5.67-6.37v-7.28c0-4.06 2.31-6.37 5.53-6.37 3.36 0 5.81 2.31 5.81 6.3v7.35z" fill="url(#paint0_linear)"/><defs><linearGradient id="paint0_linear" x1="12" y1="7.212" x2="12" y2="50" gradientUnits="userSpaceOnUse"><stop stop-color="#4170B7"/><stop offset="1" stop-color="#4170B7" stop-opacity="0"/></linearGradient></defs></svg>