<svg width="17" height="17" fill="none" xmlns="http://www.w3.org/2000/svg"><g clip-path="url(#clip0)"><path d="M12.626 1.105a.248.248 0 00-.338.097l-1.08 1.955a.248.248 0 00.098.337 5.737 5.737 0 012.964 5.02 5.736 5.736 0 01-5.73 5.729 5.736 5.736 0 01-5.729-5.73c0-1.185.375-2.354 1.062-3.32l1.71 1.711a.248.248 0 00.422-.14L6.947.312A.248.248 0 006.666.03L.212.972a.248.248 0 00-.14.421l1.852 1.851A8.476 8.476 0 00.08 8.514c0 4.664 3.795 8.459 8.46 8.459 4.664 0 8.459-3.795 8.459-8.46a8.467 8.467 0 00-4.374-7.408z" fill="#4170B7"/></g><defs><clipPath id="clip0"><path fill="#fff" d="M0 0h17v17H0z"/></clipPath></defs></svg>