<svg width="25" height="50" viewBox="0 0 25 50" fill="none" xmlns="http://www.w3.org/2000/svg">
<path d="M13.6502 15.9617C11.2002 15.9617 9.10023 16.7317 7.49023 17.9217V6.30167H23.1702V0.211667H0.700235V27.0917H7.35023C8.05023 23.9417 9.87024 22.4017 12.7402 22.4017C16.2402 22.4017 17.8502 24.5017 17.8502 29.8217V34.9317C17.8502 41.3017 15.9602 43.4017 12.6002 43.4017C9.17024 43.4017 7.35023 41.4417 7.14024 36.7517H0.280235C0.560235 45.0817 5.18023 49.9817 12.6002 49.9817C20.0902 49.9817 24.7102 44.9417 24.7102 34.8617V29.8917C24.7102 20.9317 20.2302 15.9617 13.6502 15.9617Z" fill="url(#paint0_linear)"/>
<defs>
<linearGradient id="paint0_linear" x1="11.5" y1="6.21167" x2="11.5" y2="49" gradientUnits="userSpaceOnUse">
<stop stop-color="#4170B7"/>
<stop offset="1" stop-color="#4170B7" stop-opacity="0"/>
</linearGradient>
</defs>
</svg>
