<svg width="17" height="17" viewBox="0 0 17 17" fill="none" xmlns="http://www.w3.org/2000/svg">
<g clip-path="url(#clip0)">
<path d="M12.6256 1.10461C12.568 1.07274 12.5001 1.06515 12.4369 1.08336C12.3736 1.10158 12.3202 1.14422 12.2884 1.20184L11.2084 3.15702C11.1422 3.27698 11.1857 3.42797 11.3057 3.49424C13.1342 4.50426 14.2701 6.42747 14.2701 8.51338C14.2701 11.6726 11.6999 14.2428 8.54063 14.2428C5.38141 14.2428 2.81121 11.6726 2.81121 8.51338C2.81121 7.3277 3.1863 6.15934 3.87251 5.19295L5.58382 6.90426C5.65024 6.97062 5.74836 6.9939 5.83741 6.96432C5.9265 6.93474 5.99133 6.85751 6.00488 6.76459L6.94705 0.311241C6.95837 0.233661 6.93241 0.155337 6.87697 0.0998947C6.82152 0.0444523 6.74295 0.0185428 6.66562 0.02981L0.212321 0.972032C0.119404 0.985582 0.0421721 1.05041 0.0126393 1.1395C-0.0169432 1.2286 0.00633565 1.32672 0.0726977 1.39309L1.92369 3.24408C0.733985 4.73933 0.0812846 6.60144 0.0812846 8.51338C0.0812846 13.1779 3.87613 16.9727 8.54063 16.9727C13.2051 16.9727 17 13.1779 17 8.51338C17 5.43392 15.3239 2.59505 12.6256 1.10461Z" fill="#4170B7"/>
</g>
<defs>
<clipPath id="clip0">
<rect width="17" height="17" fill="white"/>
</clipPath>
</defs>
</svg>
