<svg width="64" height="67" viewBox="0 0 64 67" fill="none" xmlns="http://www.w3.org/2000/svg">
<circle cx="32" cy="32" r="32" fill="#EAEDF1"/>
<path d="M20.0718 49.6367C20.0718 49.0844 20.5195 48.6367 21.0718 48.6367H44.0889C44.6411 48.6367 45.0889 49.0844 45.0889 49.6367V65.278C45.0889 66.0052 44.3372 66.4893 43.6751 66.1883L32.9941 61.3334C32.7312 61.2138 32.4294 61.2138 32.1665 61.3334L21.4856 66.1883C20.8235 66.4893 20.0718 66.0052 20.0718 65.278V49.6367Z" fill="#202D42"/>
<path d="M31.9684 8.47209C32.3284 8.19401 32.8308 8.19401 33.1909 8.47209L36.7889 11.251C37.0211 11.4303 37.3204 11.4986 37.6075 11.4378L42.0549 10.4952C42.4999 10.4009 42.9526 10.6189 43.1563 11.0257L45.1923 15.0905C45.3237 15.3528 45.5637 15.5442 45.8488 15.614L50.2647 16.6944C50.7066 16.8025 51.0198 17.1953 51.0269 17.6502L51.0976 22.1959C51.1022 22.4893 51.2354 22.7658 51.4619 22.9523L54.9718 25.8418C55.323 26.1309 55.4348 26.6207 55.2438 27.0336L53.3352 31.1598C53.212 31.4261 53.212 31.7331 53.3352 31.9994L55.2438 36.1256C55.4348 36.5385 55.323 37.0283 54.9718 37.3175L51.4619 40.2069C51.2354 40.3934 51.1022 40.67 51.0976 40.9634L51.0269 45.509C51.0198 45.9639 50.7066 46.3567 50.2647 46.4648L45.8488 47.5453C45.5637 47.615 45.3237 47.8064 45.1923 48.0688L43.1563 52.1336C42.9526 52.5403 42.4999 52.7583 42.0549 52.664L37.6075 51.7214C37.3204 51.6606 37.0211 51.7289 36.7889 51.9083L33.1909 54.6871C32.8308 54.9652 32.3284 54.9652 31.9684 54.6871L28.3704 51.9083C28.1381 51.7289 27.8388 51.6606 27.5518 51.7214L23.1044 52.664C22.6593 52.7583 22.2067 52.5403 22.0029 52.1336L19.9669 48.0688C19.8355 47.8064 19.5955 47.615 19.3105 47.5453L14.8945 46.4648C14.4526 46.3567 14.1394 45.9639 14.1323 45.509L14.0616 40.9634C14.057 40.67 13.9238 40.3934 13.6973 40.2069L10.1875 37.3175C9.83623 37.0283 9.72444 36.5385 9.91543 36.1256L11.824 31.9994C11.9472 31.7331 11.9472 31.4261 11.824 31.1598L9.91543 27.0336C9.72444 26.6207 9.83623 26.1309 10.1875 25.8418L13.6973 22.9523C13.9238 22.7658 14.057 22.4893 14.0616 22.1959L14.1323 17.6502C14.1394 17.1953 14.4526 16.8025 14.8945 16.6944L19.3105 15.614C19.5955 15.5442 19.8355 15.3528 19.9669 15.0905L22.0029 11.0257C22.2067 10.6189 22.6593 10.4009 23.1044 10.4952L27.5518 11.4378C27.8388 11.4986 28.1381 11.4303 28.3704 11.251L31.9684 8.47209Z" fill="#4170B7"/>
<circle cx="32.58" cy="31.5796" r="16.6548" fill="#34568A"/>
<path d="M34.2808 37.2653H31.5552V28.5885L28.8779 29.3707V27.3063L34.0308 25.5242H34.2808V37.2653Z" fill="white"/>
</svg>
