<svg width="64" height="64" viewBox="0 0 64 64" fill="none" xmlns="http://www.w3.org/2000/svg">
<circle cx="32" cy="32" r="32" fill="#EAEDF1"/>
<rect x="7" y="14.2391" width="50" height="36.2745" rx="3" fill="#202D42"/>
<rect x="12" y="17.8341" width="36" height="19" rx="3" transform="rotate(-15.1666 12 17.8341)" fill="#4170B7"/>
<rect x="7" y="18.1606" width="50" height="36.2745" rx="3" fill="#2E4363"/>
<path d="M56.6212 29.2632H48.2879C44.2608 29.2653 40.998 32.5315 41 36.5587C41.0021 40.5828 44.2638 43.8444 48.2879 43.8466H56.6212C57.1965 43.8466 57.6629 43.3802 57.6629 42.8049V30.3049C57.6629 29.7295 57.1965 29.2632 56.6212 29.2632Z" fill="#4170B7"/>
<path d="M48.1641 39.4155C49.5448 39.4155 50.6641 38.2962 50.6641 36.9155C50.6641 35.5348 49.5448 34.4155 48.1641 34.4155C46.7834 34.4155 45.6641 35.5348 45.6641 36.9155C45.6641 38.2962 46.7834 39.4155 48.1641 39.4155Z" fill="white"/>
</svg>
