<svg width="64" height="64" viewBox="0 0 64 64" fill="none" xmlns="http://www.w3.org/2000/svg">
<circle cx="32" cy="32" r="32" fill="#EAEDF1"/>
<path d="M49.5768 7.61314C49.3725 7.23454 48.9873 7 48.5693 7C46.4568 7 33.8189 7 31.6986 7C29.2264 7 16.9185 7 14.8319 7C14.4115 7 14.0239 7.23594 13.8184 7.61682L8.4502 17.5708C8.8778 17.0845 9.49147 16.7777 10.1757 16.7777C12.0541 16.7777 51.4384 16.7777 53.2215 16.7777C53.9057 16.7777 54.5192 17.0845 54.9469 17.5708L49.5768 7.61314Z" fill="#202D42"/>
<path d="M26.2988 7V16.7775H36.9583V7C35.6685 7 27.5969 7 26.2988 7Z" fill="#34568A"/>
<path d="M55.4346 18.7409C55.4346 17.4568 54.3937 16.4159 53.1096 16.4159C51.3467 16.4159 12.1985 16.4159 10.3251 16.4159C9.04092 16.4157 8 17.4566 8 18.7409C8 20.3729 8 52.9816 8 54.7743C8 56.0584 9.04092 57.0993 10.325 57.0993H53.1094C54.3935 57.0993 55.4344 56.0584 55.4344 54.7743C55.4346 53.0072 55.4346 20.3576 55.4346 18.7409Z" fill="#2E4363"/>
<path d="M28.1435 27.9065C29.8625 27.9065 29.8625 29.1648 31.5815 29.1648C33.3007 29.1648 33.3007 27.9065 35.02 27.9065C35.7709 27.9065 36.194 28.1465 36.5755 28.4169C36.736 28.5307 36.9583 28.4125 36.9583 28.2158V16.4158H26.2988V28.1564C26.2988 28.349 26.5143 28.4661 26.6734 28.3577C27.0338 28.1125 27.4479 27.9065 28.1435 27.9065Z" fill="#4170B7"/>
<path d="M47.973 51.6808H42.2879C41.5521 51.6808 40.9556 51.0843 40.9556 50.3485C40.9556 49.6124 41.5521 49.0161 42.2879 49.0161H47.973C48.7088 49.0161 49.3053 49.6126 49.3053 50.3485C49.3055 51.0843 48.7088 51.6808 47.973 51.6808Z" fill="white"/>
</svg>
