<svg width="64" height="64" viewBox="0 0 64 64" fill="none" xmlns="http://www.w3.org/2000/svg">
<circle cx="32" cy="32" r="32" fill="#EAEDF1"/>
<path d="M48.8683 2H13.9365C12.273 2 10.9243 2.84081 10.9243 3.87792V12.0571C10.9243 13.0942 12.273 13.935 13.9365 13.935H48.8681C50.5316 13.935 51.8803 13.0942 51.8803 12.0571V3.87792C51.8805 2.84081 50.5318 2 48.8683 2Z" fill="#202D42"/>
<path d="M51.0121 6.31323H10.8845C9.84374 6.31323 9 7.15698 9 8.19771V60.5445C9 61.5852 9.84374 62.429 10.8845 62.429H51.0121C52.0528 62.429 52.8965 61.5852 52.8965 60.5445V8.19771C52.8965 7.15685 52.0528 6.31323 51.0121 6.31323Z" fill="#2E4363"/>
<path d="M37.6583 53.4844H24.8845C23.8437 53.4844 23 52.6407 23 51.5999C23 50.5592 23.8437 49.7155 24.8845 49.7155H37.6581C38.6989 49.7155 39.5426 50.5592 39.5426 51.5999C39.5426 52.6407 38.699 53.4844 37.6583 53.4844Z" fill="white"/>
<path d="M31.402 15.2576C23.2488 15.2576 16.6157 21.8907 16.6157 30.0438C16.6157 38.197 23.2488 44.8301 31.402 44.8301C39.5551 44.8301 46.1882 38.197 46.1882 30.0438C46.1882 21.8907 39.5551 15.2576 31.402 15.2576ZM42.2575 28.1595H37.9005C37.6745 25.0712 36.8932 22.2379 35.6346 19.8727C39.0561 21.3017 41.6082 24.4085 42.2575 28.1595ZM28.6878 31.9284H34.116C33.84 35.0499 32.8841 37.8508 31.4018 39.8888C29.9198 37.8507 28.964 35.0499 28.6878 31.9284ZM28.6878 28.1595C28.9638 25.038 29.9198 22.2371 31.402 20.199C32.8842 22.2371 33.84 25.038 34.1161 28.1595H28.6878ZM27.1693 19.8725C25.9107 22.2379 25.1294 25.0712 24.9034 28.1593H20.5465C21.1958 24.4085 23.7478 21.3017 27.1693 19.8725ZM20.5465 31.9284H24.9034C25.1294 35.0166 25.9107 37.8498 27.1693 40.2152C23.7478 38.786 21.1958 35.6793 20.5465 31.9284ZM35.6346 40.2151C36.8932 37.8497 37.6745 35.0165 37.9005 31.9283H42.2575C41.6082 35.6793 39.0561 38.786 35.6346 40.2151Z" fill="#4170B7"/>
</svg>
