<svg width="26" height="51" viewBox="0 0 26 51" fill="none" xmlns="http://www.w3.org/2000/svg">
<path d="M13.8381 18.0817C11.1781 18.0817 8.79813 18.9917 7.18813 20.5317V13.0417C7.18813 9.12167 9.49813 7.02167 12.7881 7.02167C15.8681 7.02167 17.9681 9.19167 18.2481 12.9717H25.1081C24.6881 5.34167 19.7881 0.441668 12.7881 0.441668C5.50813 0.441668 0.328125 5.41167 0.328125 13.1817V38.1017C0.328125 45.9417 5.64813 50.9817 12.8581 50.9817C20.0681 50.9817 25.3881 45.9417 25.3881 38.1017V30.3317C25.3881 23.0517 20.2781 18.0817 13.8381 18.0817ZM18.5281 38.0317C18.5281 42.1617 16.1481 44.4017 12.8581 44.4017C9.56813 44.4017 7.18813 42.1617 7.18813 38.0317V30.7517C7.18813 26.6917 9.49813 24.3817 12.7181 24.3817C16.0781 24.3817 18.5281 26.6917 18.5281 30.6817V38.0317Z" fill="url(#paint0_linear)"/>
<defs>
<linearGradient id="paint0_linear" x1="12" y1="7.21167" x2="12" y2="50" gradientUnits="userSpaceOnUse">
<stop stop-color="#4170B7"/>
<stop offset="1" stop-color="#4170B7" stop-opacity="0"/>
</linearGradient>
</defs>
</svg>
