<svg width="118" height="26" viewBox="0 0 118 26" fill="none" xmlns="http://www.w3.org/2000/svg">
<path d="M9.52797 12.9963C9.89864 12.5625 10.5692 12.5625 10.9399 12.9963L17.788 21.0107C18.3029 21.6133 17.8747 22.5425 17.082 22.5425H3.38581C2.59316 22.5425 2.16494 21.6133 2.67986 21.0107L9.52797 12.9963Z" fill="#1D634A"/>
<path d="M9.52797 6.91114C9.89864 6.47734 10.5692 6.47734 10.9399 6.91114L17.788 14.9255C18.3029 15.5281 17.8747 16.4573 17.082 16.4573H3.38581C2.59316 16.4573 2.16494 15.5281 2.67986 14.9255L9.52797 6.91114Z" fill="#278362"/>
<path d="M9.52833 0.826178C9.89901 0.392378 10.5696 0.392379 10.9402 0.826179L17.7883 8.84055C18.3033 9.44317 17.875 10.3723 17.0824 10.3723L3.38618 10.3723C2.59352 10.3723 2.1653 9.44317 2.68023 8.84055L9.52833 0.826178Z" fill="#3EA47F"/>
<path d="M35.8708 6.64348V9.00301H30.9451V11.552H34.6308V13.8426H30.9451V18.7339H28V6.64348H35.8708Z" fill="white"/>
<path d="M41.2298 18.8717C40.2883 18.8717 39.4386 18.6707 38.6808 18.2689C37.9345 17.867 37.3432 17.2929 36.9069 16.5466C36.482 15.8003 36.2696 14.9277 36.2696 13.9287C36.2696 12.9413 36.4878 12.0744 36.9241 11.3281C37.3604 10.5703 37.9575 9.99045 38.7153 9.58858C39.4731 9.18672 40.3227 8.98578 41.2642 8.98578C42.2058 8.98578 43.0554 9.18672 43.8132 9.58858C44.571 9.99045 45.1681 10.5703 45.6044 11.3281C46.0407 12.0744 46.2589 12.9413 46.2589 13.9287C46.2589 14.9162 46.035 15.7888 45.5872 16.5466C45.1509 17.2929 44.5481 17.867 43.7788 18.2689C43.021 18.6707 42.1713 18.8717 41.2298 18.8717ZM41.2298 16.3227C41.7924 16.3227 42.2689 16.116 42.6593 15.7027C43.0612 15.2893 43.2621 14.698 43.2621 13.9287C43.2621 13.1594 43.0669 12.5681 42.6765 12.1548C42.2976 11.7414 41.8269 11.5348 41.2642 11.5348C40.6901 11.5348 40.2136 11.7414 39.8347 12.1548C39.4558 12.5566 39.2664 13.148 39.2664 13.9287C39.2664 14.698 39.4501 15.2893 39.8175 15.7027C40.1964 16.116 40.6672 16.3227 41.2298 16.3227Z" fill="white"/>
<path d="M50.7664 10.7253C51.1108 10.1971 51.5414 9.78377 52.0581 9.48525C52.5748 9.17523 53.1489 9.02023 53.7804 9.02023V12.1376H52.9709C52.2361 12.1376 51.6849 12.2983 51.3175 12.6198C50.9501 12.9298 50.7664 13.4809 50.7664 14.2732V18.7339H47.8213V9.12357H50.7664V10.7253Z" fill="white"/>
<path d="M64.2473 13.7737C64.2473 14.0493 64.2301 14.3363 64.1956 14.6349H57.5304C57.5763 15.2319 57.7658 15.6912 58.0987 16.0127C58.4432 16.3227 58.8623 16.4777 59.356 16.4777C60.0908 16.4777 60.6018 16.1677 60.8888 15.5477H64.0234C63.8626 16.1792 63.5699 16.7475 63.145 17.2527C62.7317 17.7579 62.2092 18.1541 61.5777 18.4411C60.9462 18.7282 60.2401 18.8717 59.4593 18.8717C58.5178 18.8717 57.6796 18.6707 56.9448 18.2689C56.21 17.867 55.6359 17.2929 55.2225 16.5466C54.8092 15.8003 54.6025 14.9277 54.6025 13.9287C54.6025 12.9298 54.8034 12.0572 55.2053 11.3109C55.6187 10.5645 56.1927 9.99045 56.9276 9.58858C57.6624 9.18672 58.5063 8.98578 59.4593 8.98578C60.3894 8.98578 61.2161 9.18098 61.9394 9.57136C62.6628 9.96174 63.2254 10.5186 63.6273 11.242C64.0406 11.9653 64.2473 12.8092 64.2473 13.7737ZM61.2333 12.9987C61.2333 12.4935 61.0611 12.0916 60.7166 11.7931C60.3721 11.4946 59.9416 11.3453 59.4249 11.3453C58.9312 11.3453 58.5121 11.4888 58.1676 11.7759C57.8347 12.0629 57.628 12.4705 57.5476 12.9987H61.2333Z" fill="white"/>
<path d="M69.7105 18.8717C68.8724 18.8717 68.126 18.7282 67.4716 18.4411C66.8171 18.1541 66.3004 17.7637 65.9215 17.27C65.5426 16.7648 65.3302 16.2021 65.2843 15.5821H68.1949C68.2294 15.9151 68.3844 16.1849 68.66 16.3916C68.9355 16.5983 69.2742 16.7016 69.6761 16.7016C70.0435 16.7016 70.3248 16.6327 70.52 16.4949C70.7267 16.3457 70.83 16.1562 70.83 15.9266C70.83 15.651 70.6865 15.4501 70.3995 15.3238C70.1124 15.186 69.6474 15.0367 69.0044 14.876C68.3155 14.7152 67.7414 14.5488 67.2821 14.3765C66.8229 14.1928 66.4267 13.9115 66.0938 13.5326C65.7608 13.1422 65.5943 12.6198 65.5943 11.9653C65.5943 11.4142 65.7436 10.9147 66.0421 10.4669C66.3521 10.0077 66.7999 9.64599 67.3855 9.38191C67.9825 9.11782 68.6887 8.98578 69.5039 8.98578C70.7095 8.98578 71.6567 9.28431 72.3456 9.88137C73.046 10.4784 73.4479 11.2707 73.5512 12.2581H70.83C70.7841 11.9251 70.6348 11.6611 70.3822 11.4659C70.1411 11.2707 69.8196 11.1731 69.4178 11.1731C69.0733 11.1731 68.8092 11.242 68.6255 11.3798C68.4418 11.5061 68.3499 11.684 68.3499 11.9137C68.3499 12.1892 68.4935 12.3959 68.7805 12.5337C69.079 12.6715 69.5383 12.8092 70.1583 12.947C70.8702 13.1307 71.45 13.3145 71.8978 13.4982C72.3456 13.6704 72.736 13.9574 73.069 14.3593C73.4135 14.7497 73.5914 15.2779 73.6029 15.9438C73.6029 16.5064 73.4422 17.0116 73.1207 17.4594C72.8106 17.8957 72.3571 18.2402 71.7601 18.4928C71.1745 18.7454 70.4913 18.8717 69.7105 18.8717Z" fill="white"/>
<path d="M80.761 16.2366V18.7339H79.2626C78.1948 18.7339 77.3624 18.4756 76.7653 17.9589C76.1682 17.4307 75.8697 16.5753 75.8697 15.3927V11.5692H74.6986V9.12357H75.8697V6.78126H78.8148V9.12357H80.7438V11.5692H78.8148V15.4271C78.8148 15.7142 78.8837 15.9208 79.0215 16.0471C79.1593 16.1734 79.3889 16.2366 79.7104 16.2366H80.761Z" fill="white"/>
<path d="M97.366 9.33024L94.4209 18.7339H93.2153L90.6147 10.8458L88.014 18.7339H86.7912L83.8461 9.33024H85.0689L87.4112 17.5111L90.0463 9.33024H91.2519L93.8526 17.5283L96.1777 9.33024H97.366Z" fill="white"/>
<path d="M106.954 13.5498C106.954 13.9632 106.943 14.2789 106.92 14.4971H99.1178C99.1522 15.209 99.3244 15.8175 99.6344 16.3227C99.9444 16.8279 100.352 17.2125 100.857 17.4766C101.362 17.7292 101.914 17.8555 102.511 17.8555C103.291 17.8555 103.946 17.6661 104.474 17.2872C105.014 16.9083 105.37 16.3973 105.542 15.7543H106.816C106.587 16.6729 106.093 17.425 105.335 18.0105C104.589 18.5846 103.647 18.8717 102.511 18.8717C101.627 18.8717 100.834 18.6765 100.134 18.2861C99.4335 17.8842 98.8824 17.3216 98.4805 16.5983C98.0901 15.8634 97.8949 15.008 97.8949 14.0321C97.8949 13.0561 98.0901 12.2007 98.4805 11.4659C98.8709 10.731 99.4163 10.1684 100.117 9.77803C100.817 9.38765 101.615 9.19246 102.511 9.19246C103.406 9.19246 104.187 9.38765 104.853 9.77803C105.53 10.1684 106.047 10.6966 106.403 11.3625C106.77 12.017 106.954 12.7461 106.954 13.5498ZM105.731 13.5154C105.743 12.815 105.599 12.2179 105.301 11.7242C105.014 11.2305 104.618 10.8573 104.112 10.6047C103.607 10.3521 103.056 10.2258 102.459 10.2258C101.563 10.2258 100.8 10.5129 100.168 11.087C99.5368 11.6611 99.1866 12.4705 99.1178 13.5154H105.731Z" fill="white"/>
<path d="M109.785 11.4142C110.095 10.7597 110.571 10.2258 111.214 9.81248C111.869 9.39913 112.638 9.19246 113.522 9.19246C114.383 9.19246 115.152 9.39339 115.83 9.79526C116.507 10.1856 117.036 10.7483 117.414 11.4831C117.805 12.2064 118 13.0504 118 14.0148C118 14.9793 117.805 15.829 117.414 16.5638C117.036 17.2987 116.502 17.867 115.813 18.2689C115.135 18.6707 114.372 18.8717 113.522 18.8717C112.626 18.8717 111.851 18.6707 111.197 18.2689C110.554 17.8555 110.083 17.3216 109.785 16.6672V18.7339H108.596V5.98901H109.785V11.4142ZM116.777 14.0148C116.777 13.2341 116.622 12.5624 116.312 11.9998C116.014 11.4257 115.6 10.9894 115.072 10.6908C114.544 10.3923 113.947 10.243 113.281 10.243C112.638 10.243 112.047 10.3981 111.507 10.7081C110.979 11.0181 110.56 11.4601 110.25 12.0342C109.94 12.6083 109.785 13.2743 109.785 14.0321C109.785 14.7899 109.94 15.4558 110.25 16.0299C110.56 16.604 110.979 17.0461 111.507 17.3561C112.047 17.6661 112.638 17.8211 113.281 17.8211C113.947 17.8211 114.544 17.6718 115.072 17.3733C115.6 17.0633 116.014 16.6212 116.312 16.0471C116.622 15.4616 116.777 14.7841 116.777 14.0148Z" fill="white"/>
</svg>
