<svg width="15" height="19" viewBox="0 0 15 19" fill="none" xmlns="http://www.w3.org/2000/svg">
<path d="M6.75276 9.69678C7.12343 9.26298 7.79399 9.26298 8.16466 9.69678L12.6093 14.8983C13.1242 15.5009 12.696 16.4301 11.9033 16.4301H3.01412C2.22146 16.4301 1.79323 15.5009 2.30816 14.8983L6.75276 9.69678Z" fill="#1D634A"/>
<path d="M6.75276 5.26124C7.12343 4.82744 7.79399 4.82744 8.16466 5.26124L12.6093 10.4628C13.1242 11.0654 12.696 11.9946 11.9033 11.9946L3.01412 11.9946C2.22146 11.9946 1.79323 11.0654 2.30816 10.4628L6.75276 5.26124Z" fill="#278362"/>
<path d="M6.753 0.826179C7.12367 0.392379 7.79423 0.392379 8.16491 0.826179L12.6095 6.02771C13.1244 6.63033 12.6962 7.5595 11.9035 7.5595L3.01436 7.5595C2.2217 7.5595 1.79348 6.63033 2.30841 6.02771L6.753 0.826179Z" fill="#3EA47F"/>
</svg>
