<svg width="66" height="10" viewBox="0 0 66 10" fill="none" xmlns="http://www.w3.org/2000/svg">
<path d="M5.77194 0.567571V2.21597H2.15974V3.99672H4.86258V5.59698H2.15974V9.0141H0V0.567571H5.77194Z" fill="#202020"/>
<path d="M9.70185 9.11035C9.01141 9.11035 8.38832 8.96998 7.8326 8.68923C7.2853 8.40848 6.85167 8.00741 6.5317 7.48602C6.22016 6.96463 6.06439 6.355 6.06439 5.65714C6.06439 4.9673 6.22437 4.36169 6.54433 3.8403C6.8643 3.31089 7.30214 2.90581 7.85786 2.62506C8.41358 2.34431 9.03667 2.20393 9.72711 2.20393C10.4176 2.20393 11.0406 2.34431 11.5964 2.62506C12.1521 2.90581 12.5899 3.31089 12.9099 3.8403C13.2298 4.36169 13.3898 4.9673 13.3898 5.65714C13.3898 6.34698 13.2256 6.95661 12.8973 7.48602C12.5773 8.00741 12.1352 8.40848 11.5711 8.68923C11.0154 8.96998 10.3923 9.11035 9.70185 9.11035ZM9.70185 7.3296C10.1144 7.3296 10.4639 7.18522 10.7501 6.89645C11.0448 6.60768 11.1922 6.19458 11.1922 5.65714C11.1922 5.11971 11.0491 4.70661 10.7628 4.41784C10.4849 4.12907 10.1397 3.98468 9.72711 3.98468C9.30611 3.98468 8.95668 4.12907 8.67881 4.41784C8.40095 4.69859 8.26202 5.11169 8.26202 5.65714C8.26202 6.19458 8.39674 6.60768 8.66618 6.89645C8.94405 7.18522 9.28927 7.3296 9.70185 7.3296Z" fill="#202020"/>
<path d="M16.6954 3.41917C16.948 3.05019 17.2637 2.76142 17.6426 2.55287C18.0215 2.33629 18.4425 2.228 18.9056 2.228V4.40581H18.312C17.7731 4.40581 17.369 4.51811 17.0995 4.7427C16.8301 4.95928 16.6954 5.34431 16.6954 5.89778V9.0141H14.5356V2.30019H16.6954V3.41917Z" fill="#202020"/>
<path d="M26.5813 5.54885C26.5813 5.74137 26.5687 5.9419 26.5435 6.15046H21.6556C21.6893 6.56757 21.8282 6.88843 22.0724 7.11303C22.325 7.3296 22.6323 7.43789 22.9944 7.43789C23.5333 7.43789 23.908 7.22131 24.1185 6.78816H26.4172C26.2993 7.22934 26.0846 7.62639 25.773 7.97934C25.4699 8.33228 25.0868 8.60901 24.6237 8.80955C24.1606 9.01008 23.6427 9.11035 23.0702 9.11035C22.3797 9.11035 21.7651 8.96998 21.2262 8.68923C20.6873 8.40848 20.2663 8.00741 19.9632 7.48602C19.6601 6.96463 19.5085 6.355 19.5085 5.65714C19.5085 4.95928 19.6559 4.34966 19.9506 3.82827C20.2537 3.30688 20.6747 2.90581 21.2136 2.62506C21.7524 2.34431 22.3713 2.20393 23.0702 2.20393C23.7522 2.20393 24.3584 2.3403 24.8889 2.61303C25.4194 2.88575 25.832 3.27479 26.1267 3.78014C26.4298 4.28549 26.5813 4.87506 26.5813 5.54885ZM24.3711 5.00741C24.3711 4.65447 24.2448 4.37372 23.9922 4.16516C23.7396 3.95661 23.4238 3.85233 23.0449 3.85233C22.6829 3.85233 22.3755 3.9526 22.1229 4.15313C21.8787 4.35367 21.7272 4.63843 21.6682 5.00741H24.3711Z" fill="#202020"/>
<path d="M30.5877 9.11035C29.9731 9.11035 29.4258 9.01008 28.9458 8.80955C28.4659 8.60901 28.087 8.33629 27.8091 7.99137C27.5313 7.63843 27.3755 7.24538 27.3418 6.81222H29.4763C29.5015 7.04484 29.6152 7.23335 29.8173 7.37773C30.0194 7.52212 30.2678 7.59431 30.5625 7.59431C30.8319 7.59431 31.0382 7.54618 31.1813 7.44992C31.3329 7.34565 31.4087 7.21329 31.4087 7.05287C31.4087 6.86035 31.3034 6.71998 31.0929 6.63174C30.8824 6.53549 30.5414 6.43121 30.0699 6.31891C29.5647 6.20661 29.1437 6.0903 28.8069 5.96998C28.4701 5.84163 28.1796 5.64511 27.9354 5.3804C27.6912 5.10768 27.5691 4.7427 27.5691 4.28549C27.5691 3.90046 27.6786 3.55153 27.8975 3.23869C28.1249 2.91784 28.4533 2.66516 28.8827 2.48067C29.3205 2.29618 29.8384 2.20393 30.4362 2.20393C31.3203 2.20393 32.0149 2.41249 32.5201 2.8296C33.0338 3.24672 33.3285 3.80019 33.4042 4.49003H31.4087C31.375 4.25741 31.2655 4.07292 31.0803 3.93655C30.9035 3.80019 30.6677 3.73201 30.373 3.73201C30.1204 3.73201 29.9268 3.78014 29.792 3.87639C29.6573 3.96463 29.59 4.08896 29.59 4.24939C29.59 4.4419 29.6952 4.58629 29.9057 4.68254C30.1246 4.7788 30.4614 4.87506 30.9161 4.97131C31.4382 5.09966 31.8634 5.228 32.1918 5.35634C32.5201 5.47666 32.8064 5.6772 33.0506 5.95795C33.3032 6.23067 33.4337 6.59966 33.4421 7.0649C33.4421 7.45795 33.3242 7.81089 33.0885 8.12372C32.8611 8.42853 32.5286 8.66918 32.0907 8.84565C31.6613 9.02212 31.1603 9.11035 30.5877 9.11035Z" fill="#202020"/>
<path d="M38.6914 7.26944V9.0141H37.5926C36.8095 9.0141 36.1991 8.83361 35.7612 8.47265C35.3234 8.10367 35.1045 7.50607 35.1045 6.67987V4.00875H34.2456V2.30019H35.1045V0.663828H37.2642V2.30019H38.6788V4.00875H37.2642V6.70393C37.2642 6.90447 37.3147 7.04885 37.4158 7.13709C37.5168 7.22532 37.6852 7.26944 37.921 7.26944H38.6914Z" fill="#202020"/>
<path d="M50.8684 2.44458L48.7087 9.0141H47.8246L45.9174 3.5034L44.0103 9.0141H43.1136L40.9538 2.44458H41.8506L43.5682 8.15982L45.5006 2.44458H46.3847L48.2919 8.17185L49.9969 2.44458H50.8684Z" fill="#202020"/>
<path d="M57.8997 5.39244C57.8997 5.68121 57.8913 5.9018 57.8744 6.0542H52.153C52.1783 6.55153 52.3046 6.97666 52.5319 7.3296C52.7593 7.68254 53.0582 7.95126 53.4287 8.13575C53.7991 8.31222 54.2033 8.40046 54.6411 8.40046C55.2137 8.40046 55.6936 8.26811 56.081 8.0034C56.4767 7.73869 56.7377 7.38174 56.864 6.93254H57.7987C57.6303 7.57426 57.2682 8.09966 56.7125 8.50875C56.1652 8.90982 55.4747 9.11035 54.6411 9.11035C53.9928 9.11035 53.4118 8.97399 52.8982 8.70126C52.3846 8.42051 51.9804 8.02746 51.6857 7.52212C51.3994 7.00875 51.2563 6.41115 51.2563 5.72934C51.2563 5.04752 51.3994 4.44992 51.6857 3.93655C51.972 3.42319 52.3719 3.03014 52.8856 2.75741C53.3992 2.48468 53.9844 2.34832 54.6411 2.34832C55.2979 2.34832 55.8705 2.48468 56.3588 2.75741C56.8556 3.03014 57.2345 3.39912 57.4955 3.86436C57.765 4.32158 57.8997 4.83094 57.8997 5.39244ZM57.003 5.36837C57.0114 4.87907 56.9061 4.46196 56.6872 4.11704C56.4767 3.77212 56.1862 3.51142 55.8157 3.33495C55.4453 3.15848 55.0411 3.07024 54.6033 3.07024C53.9465 3.07024 53.3866 3.27078 52.9235 3.67185C52.4604 4.07292 52.2035 4.63843 52.153 5.36837H57.003Z" fill="#202020"/>
<path d="M59.9755 3.90046C60.2028 3.44324 60.5522 3.07024 61.0238 2.78147C61.5037 2.4927 62.0678 2.34832 62.7162 2.34832C63.3477 2.34832 63.9118 2.48869 64.4086 2.76944C64.9054 3.04217 65.2927 3.43522 65.5706 3.94859C65.8569 4.45393 66 5.04351 66 5.7173C66 6.3911 65.8569 6.98468 65.5706 7.49805C65.2927 8.01142 64.9012 8.40848 64.396 8.68923C63.8992 8.96998 63.3393 9.11035 62.7162 9.11035C62.0594 9.11035 61.4911 8.96998 61.0111 8.68923C60.5396 8.40046 60.1944 8.02746 59.9755 7.57024V9.0141H59.104V0.110352H59.9755V3.90046ZM65.1033 5.7173C65.1033 5.17185 64.9896 4.7026 64.7623 4.30955C64.5433 3.90848 64.2402 3.60367 63.8529 3.39511C63.4656 3.18655 63.0277 3.08228 62.5394 3.08228C62.0678 3.08228 61.6342 3.19057 61.2385 3.40714C60.8511 3.62372 60.5438 3.93254 60.3165 4.33361C60.0891 4.73468 59.9755 5.19992 59.9755 5.72934C59.9755 6.25875 60.0891 6.72399 60.3165 7.12506C60.5438 7.52613 60.8511 7.83495 61.2385 8.05153C61.6342 8.26811 62.0678 8.37639 62.5394 8.37639C63.0277 8.37639 63.4656 8.27212 63.8529 8.06356C64.2402 7.84698 64.5433 7.53816 64.7623 7.13709C64.9896 6.728 65.1033 6.25474 65.1033 5.7173Z" fill="#202020"/>
</svg>
