<svg width="65" height="66" viewBox="0 0 65 66" fill="none" xmlns="http://www.w3.org/2000/svg">
<circle cx="32" cy="32" r="32" fill="#EAEDF1"/>
<path d="M39.6666 50.8003H4.33337C2.46662 50.8003 1 49.2003 1 47.3337V13.8669C1 12.0003 2.46662 10.5337 4.33337 10.5337H36.3334C38.2 10.5337 39.6668 12.0003 39.6668 13.8671V50.8003H39.6666Z" fill="#2E4363"/>
<path d="M64.067 29.1999L55.5336 20.6665C55.0002 20.1332 54.2002 19.7332 53.4002 19.7332H39.667V50.7999H61.5336C63.4004 50.7999 65.0004 49.1999 65.0004 47.3333V31.3333C65.0004 30.3999 64.7337 29.7333 64.067 29.1999Z" fill="#4170B7"/>
<path d="M1 44.9331V47.3331C1 49.1997 2.46662 50.6664 4.33337 50.6664H61.5334C63.4 50.6664 65 49.0664 65 47.1998V44.7998H1V44.9331Z" fill="#202D42"/>
<path d="M60.4668 35.9997V31.8663L52.8668 24.1331H44.2002V35.9997H60.4668Z" fill="#34568A"/>
<path d="M17.2666 57.4661C21.8322 57.4661 25.5333 53.765 25.5333 49.1995C25.5333 44.634 21.8322 40.9329 17.2666 40.9329C12.7011 40.9329 9 44.634 9 49.1995C9 53.765 12.7011 57.4661 17.2666 57.4661Z" fill="#273A57"/>
<path d="M17.2666 53.2002C19.4757 53.2002 21.2666 51.4093 21.2666 49.2002C21.2666 46.9911 19.4757 45.2002 17.2666 45.2002C15.0575 45.2002 13.2666 46.9911 13.2666 49.2002C13.2666 51.4093 15.0575 53.2002 17.2666 53.2002Z" fill="white"/>
<path d="M50.8662 57.4668C55.4318 57.4668 59.1329 53.7657 59.1329 49.2002C59.1329 44.6347 55.4318 40.9336 50.8662 40.9336C46.3007 40.9336 42.5996 44.6347 42.5996 49.2002C42.5996 53.7657 46.3007 57.4668 50.8662 57.4668Z" fill="#273A57"/>
<path d="M50.8662 53.2002C53.0753 53.2002 54.8662 51.4093 54.8662 49.2002C54.8662 46.9911 53.0753 45.2002 50.8662 45.2002C48.6571 45.2002 46.8662 46.9911 46.8662 49.2002C46.8662 51.4093 48.6571 53.2002 50.8662 53.2002Z" fill="white"/>
<path d="M15.0156 33H7.07812V31.2812L10.7344 27.4375C11.6354 26.4115 12.0859 25.5964 12.0859 24.9922C12.0859 24.5026 11.9792 24.1302 11.7656 23.875C11.5521 23.6198 11.2422 23.4922 10.8359 23.4922C10.4349 23.4922 10.1094 23.6641 9.85938 24.0078C9.60938 24.3464 9.48438 24.7708 9.48438 25.2812H6.84375C6.84375 24.5833 7.01823 23.9401 7.36719 23.3516C7.71615 22.7578 8.20052 22.2943 8.82031 21.9609C9.4401 21.6276 10.1328 21.4609 10.8984 21.4609C12.1276 21.4609 13.0729 21.7448 13.7344 22.3125C14.401 22.8802 14.7344 23.6953 14.7344 24.7578C14.7344 25.2057 14.651 25.6432 14.4844 26.0703C14.3177 26.4922 14.0573 26.9375 13.7031 27.4062C13.3542 27.8698 12.7891 28.4922 12.0078 29.2734L10.5391 30.9688H15.0156V33Z" fill="white"/>
<path d="M24.3984 28.3516C24.3984 29.888 24.0521 31.0729 23.3594 31.9062C22.6719 32.7396 21.7005 33.1562 20.4453 33.1562C19.1797 33.1562 18.2005 32.737 17.5078 31.8984C16.8151 31.0599 16.4688 29.8776 16.4688 28.3516V26.2734C16.4688 24.737 16.8125 23.5521 17.5 22.7188C18.1927 21.8854 19.1693 21.4688 20.4297 21.4688C21.6901 21.4688 22.6667 21.888 23.3594 22.7266C24.0521 23.5651 24.3984 24.75 24.3984 26.2812V28.3516ZM21.7656 25.9375C21.7656 25.1198 21.6589 24.5104 21.4453 24.1094C21.2318 23.7031 20.8932 23.5 20.4297 23.5C19.9766 23.5 19.6458 23.6875 19.4375 24.0625C19.2344 24.4375 19.125 25.0052 19.1094 25.7656V28.6719C19.1094 29.5208 19.2161 30.1432 19.4297 30.5391C19.6432 30.9297 19.9818 31.125 20.4453 31.125C20.8932 31.125 21.224 30.9349 21.4375 30.5547C21.651 30.1693 21.7604 29.5677 21.7656 28.75V25.9375Z" fill="white"/>
<path d="M33.3672 26.5625H30.7031V33H28.0547V26.5625H25.4297V24.5469H33.3672V26.5625Z" fill="white"/>
</svg>
