<svg width="66" height="66" viewBox="0 0 66 66" fill="none" xmlns="http://www.w3.org/2000/svg">
<circle cx="32" cy="32" r="32" fill="#EAEDF1"/>
<path d="M40.6666 50.8003H5.33337C3.46662 50.8003 2 49.2003 2 47.3337V13.8669C2 12.0003 3.46662 10.5337 5.33337 10.5337H37.3334C39.2 10.5337 40.6668 12.0003 40.6668 13.8671V50.8003H40.6666Z" fill="#2E4363"/>
<path d="M65.067 29.1999L56.5336 20.6665C56.0002 20.1332 55.2002 19.7332 54.4002 19.7332H40.667V50.7999H62.5336C64.4004 50.7999 66.0004 49.1999 66.0004 47.3333V31.3333C66.0004 30.3999 65.7337 29.7333 65.067 29.1999Z" fill="#4170B7"/>
<path d="M2 44.9331V47.3331C2 49.1997 3.46662 50.6664 5.33337 50.6664H62.5334C64.4 50.6664 66 49.0664 66 47.1998V44.7998H2V44.9331Z" fill="#202D42"/>
<path d="M61.4668 35.9997V31.8663L53.8668 24.1331H45.2002V35.9997H61.4668Z" fill="#34568A"/>
<path d="M18.2666 57.4661C22.8322 57.4661 26.5333 53.765 26.5333 49.1995C26.5333 44.634 22.8322 40.9329 18.2666 40.9329C13.7011 40.9329 10 44.634 10 49.1995C10 53.765 13.7011 57.4661 18.2666 57.4661Z" fill="#273A57"/>
<path d="M18.2666 53.2002C20.4757 53.2002 22.2666 51.4093 22.2666 49.2002C22.2666 46.9911 20.4757 45.2002 18.2666 45.2002C16.0575 45.2002 14.2666 46.9911 14.2666 49.2002C14.2666 51.4093 16.0575 53.2002 18.2666 53.2002Z" fill="white"/>
<path d="M51.8662 57.4668C56.4318 57.4668 60.1329 53.7657 60.1329 49.2002C60.1329 44.6347 56.4318 40.9336 51.8662 40.9336C47.3007 40.9336 43.5996 44.6347 43.5996 49.2002C43.5996 53.7657 47.3007 57.4668 51.8662 57.4668Z" fill="#273A57"/>
<path d="M51.8662 53.2002C54.0753 53.2002 55.8662 51.4093 55.8662 49.2002C55.8662 46.9911 54.0753 45.2002 51.8662 45.2002C49.6571 45.2002 47.8662 46.9911 47.8662 49.2002C47.8662 51.4093 49.6571 53.2002 51.8662 53.2002Z" fill="white"/>
<path d="M14.0236 27.4375L14.7189 21.625H21.3673V23.6719H16.8595L16.6017 25.9297C16.7892 25.8203 17.034 25.724 17.3361 25.6406C17.6433 25.5573 17.9428 25.5156 18.2345 25.5156C19.3647 25.5156 20.2319 25.8516 20.8361 26.5234C21.4454 27.1901 21.7501 28.1276 21.7501 29.3359C21.7501 30.0651 21.5861 30.7266 21.2579 31.3203C20.935 31.9089 20.4793 32.362 19.8907 32.6797C19.3022 32.9974 18.6069 33.1562 17.8048 33.1562C17.0913 33.1562 16.422 33.0104 15.797 32.7188C15.172 32.4219 14.6824 32.0182 14.3282 31.5078C13.9741 30.9922 13.7996 30.4115 13.8048 29.7656H16.4454C16.4715 30.1823 16.6043 30.513 16.8439 30.7578C17.0834 31.0026 17.3986 31.125 17.7892 31.125C18.6746 31.125 19.1173 30.4688 19.1173 29.1562C19.1173 27.9427 18.5756 27.3359 17.4923 27.3359C16.8777 27.3359 16.4194 27.5339 16.1173 27.9297L14.0236 27.4375Z" fill="white"/>
<path d="M30.5782 26.5625H27.9142V33H25.2657V26.5625H22.6407V24.5469H30.5782V26.5625Z" fill="white"/>
</svg>
